<svg height="26.873" viewBox="0 0 21.089 26.873" width="21.089" xmlns="http://www.w3.org/2000/svg"><g fill="#fff"><path d="m125.022 274.936c-.009-.588.307-1.132.246-1.732a1.838 1.838 0 0 0 -.912-1.387c-1.32-.785-2.693.157-3.46 1.235-.51.717.663 1.414 1.169.7.309-.434 1.089-1.23 1.674-.718.393.344.027 1.063-.037 1.494a2.8 2.8 0 0 0 1.579 2.837 4.557 4.557 0 0 0 .47.259.186.186 0 0 0 .265-.152c.03-.318.076-.653.143-1a.185.185 0 0 0 -.092-.2 1.741 1.741 0 0 1 -1.045-1.336z" transform="translate(-120.77 -258.112)"/><path d="m208.082 323.722a9.527 9.527 0 0 1 -5.555-1.836.4.4 0 0 0 -.613.2 8.935 8.935 0 0 0 -.4 2.6l-.056 4.391a2.06 2.06 0 0 0 1.884 2.086 1.745 1.745 0 0 0 1.933-1.774l.024-1.886a.122.122 0 0 1 .166-.113 8.581 8.581 0 0 0 2.932.564 9.067 9.067 0 0 0 2.947-.445.122.122 0 0 1 .16.118l-.023 1.841a1.745 1.745 0 0 0 1.887 1.823 2.06 2.06 0 0 0 1.937-2.037l.056-4.391a8.58 8.58 0 0 0 -.449-2.949.394.394 0 0 0 -.607-.19 10.346 10.346 0 0 1 -6.224 2z" transform="translate(-195.319 -304.413)"/><path d="m205.219 104.061a6.6 6.6 0 0 0 -1.913-3.033.78.78 0 0 1 -.245-.486l-.528-4.406a1 1 0 0 0 -1.812-.448l-2.2 3.2a.469.469 0 0 1 -.39.2 8.636 8.636 0 0 0 -3.947.949.527.527 0 0 1 -.538-.028l-2.492-1.692a.967.967 0 0 0 -1.5.926l.6 4.564a2.353 2.353 0 0 1 -.076.961 6.615 6.615 0 0 0 0 3.735c1.114 3.78 5.387 5.85 9.544 4.625s6.611-5.287 5.497-9.067z" transform="translate(-184.398 -95.256)"/></g></svg>