<svg height="34.2" viewBox="0 0 34.2 34.2" width="34.2" xmlns="http://www.w3.org/2000/svg" xmlns:xlink="http://www.w3.org/1999/xlink"><clipPath id="a"><circle cx="17.1" cy="17.1" r="17.1"/></clipPath><clipPath id="b"><circle cx="16.767" cy="16.767" r="16.767"/></clipPath><clipPath id="c"><circle cx="15.422" cy="15.422" r="15.422"/></clipPath><clipPath id="d"><path d="m-535.244-48.822 4.362-3.186c.379-.313.673-.235.673.333v9.715c0 .646-.359.568-.673.333l-4.362-3.18zm-14.756-2.827v7.249a2.966 2.966 0 0 0 2.977 2.951h10.564a.539.539 0 0 0 .542-.535v-7.247a2.966 2.966 0 0 0 -2.977-2.951h-10.564a.539.539 0 0 0 -.542.533z" transform="translate(550 52.191)"/></clipPath><g clip-path="url(#a)"><path d="m-670.7-244.7h35.878v35.878h-35.878z" fill="#e5e5e4" transform="translate(669.858 243.858)"/></g><g clip-path="url(#b)" transform="translate(.333 .333)"><path d="m-665.5-239.5h35.212v35.212h-35.212z" fill="#fff" transform="translate(664.664 238.664)"/></g><g clip-path="url(#c)" transform="translate(1.678 1.678)"><path d="m-645-219h32.529v32.529h-32.529z" fill="#4a8cff" transform="translate(644.158 218.158)"/></g><g clip-path="url(#d)" transform="translate(7.039 11.727)"><path d="m-562.8-64.9h21.461v12.406h-21.461z" fill="#fff" transform="translate(561.964 64.07)"/></g></svg>