<svg height="18.438" viewBox="0 0 117.897 18.438" width="117.897" xmlns="http://www.w3.org/2000/svg"><path d="m75.781 554.738-1 2.551q-.209.586-.376 1.213a9.83 9.83 0 0 1 -.356 1.1 1.617 1.617 0 0 1 -.575.742 2.851 2.851 0 0 1 -.868.408 3.179 3.179 0 0 1 -.993.115 2.615 2.615 0 0 1 -.91-.188 1.052 1.052 0 0 1 -.627-1.38q.962-4.225 1.809-6.776t1.4-4.016q.554-1.464 1.161-3.1a1.87 1.87 0 0 1 .5-1.088 3.765 3.765 0 0 1 1.035-.795 4.739 4.739 0 0 1 1.245-.449 2.82 2.82 0 0 1 1.15-.032 1.129 1.129 0 0 1 .742.46 1.181 1.181 0 0 1 .032 1.025q-.753 1.924-1.067 2.719t-.565 1.422l-.586 1.381a4.392 4.392 0 0 0 1.109-.126 5.371 5.371 0 0 1 1.757-.188 1.113 1.113 0 0 1 .1-.356 46.411 46.411 0 0 1 1.318-4.685 2.587 2.587 0 0 1 2.7-1.841 1.813 1.813 0 0 1 1.3.419.933.933 0 0 1 .126 1.192q-1.924 5.4-2.719 8.512-.9 3.6-1.182 4.852a4.394 4.394 0 0 1 -.492 1.485 1.271 1.271 0 0 1 -.428.324c-.146.062-.29.122-.429.178a.66.66 0 0 0 -.335.418h-.063a1.2 1.2 0 0 1 -.732.586 2.577 2.577 0 0 1 -1.14.157 1.561 1.561 0 0 1 -.962-.419 1.083 1.083 0 0 1 -.2-1.118 16.209 16.209 0 0 1 .69-2.562q.481-1.369.763-2.143t.471-1.444a1.7 1.7 0 0 1 -.324.126 2.2 2.2 0 0 0 -.387.157 3.924 3.924 0 0 1 -.471.2q-.24.084-.471.167a6.3 6.3 0 0 0 -.962.46zm2.364-1.4a1.7 1.7 0 0 0 .209-.062c-.084.024-.154.047-.209.061z" transform="translate(-70.009 -542.716)"/><path d="m117.068 545.645a1.7 1.7 0 0 1 .9 1.109q-.418 2.342-.753 4.654t-.648 3.869q-.314 1.558-.429 2.332t-.261 1.548l-.126.44q-.042.23-.084.429c-.028.132-.056.275-.084.428a2.005 2.005 0 0 1 -1.589.669 2.5 2.5 0 0 1 -1.694-.544q-.376-.293-.126-1.234a4.638 4.638 0 0 0 .136-.973q.031-.6.073-.993v-.042a4.628 4.628 0 0 0 -1.129.6q-.5.367-.627.46a.93.93 0 0 1 -.335.146 3.133 3.133 0 0 1 -.376.073 1.1 1.1 0 0 0 -.544.126q-1.214 2.175-2.175 2.426a2.663 2.663 0 0 1 -1.213.094 1.322 1.322 0 0 1 -.962-.721q-.669-.628.335-3.43.544-1.485 1.558-3.566t1.955-3.629a26.731 26.731 0 0 1 4.455-5.605q.4-.167.858-.387a2.363 2.363 0 0 1 .91-.24 3.115 3.115 0 0 1 .931.1 2.321 2.321 0 0 1 .816.376 1 1 0 0 1 .228 1.485zm-4.476 5.5q-.439 1.255-.879 2.311t-.753 1.851l1.652-.063q.167-1.339.376-2.656t.4-2.635zm-.565 4.183a4.111 4.111 0 0 0 .586-.042v-.021c-.182.014-.349.028-.5.041s-.184.022-.086.022z" transform="translate(-92.429 -543.244)"/><path d="m149.709 554.563a5.735 5.735 0 0 1 -1.746.91 4.123 4.123 0 0 1 -1.809.157 2.655 2.655 0 0 1 -1.548-.774 19.756 19.756 0 0 0 -.795 3.681 1.638 1.638 0 0 1 -.293.607 2.294 2.294 0 0 1 -1.652 1.485 3.366 3.366 0 0 1 -2.343-.125 2.187 2.187 0 0 1 -.837-.669 1.711 1.711 0 0 1 -.334-1.067 77.506 77.506 0 0 1 2.782-8.2q.293-.669.47-1.088t.325-.711q.146-.293.261-.512c.076-.147.171-.31.282-.492q.376-.627.868-1.474a9.868 9.868 0 0 1 .836-1.266 4.771 4.771 0 0 1 .732-.721 7.391 7.391 0 0 1 .858-.575q.471-.272 1.182-.711a3.623 3.623 0 0 1 5.333 1.757 7.936 7.936 0 0 1 .209 4.162q-.648 3.994-2.781 5.626zm-4.371-1.861a3.2 3.2 0 0 0 2.385-2.238 6.964 6.964 0 0 0 .23-3.555 16.1 16.1 0 0 0 -.868 1.694q-.387.879-.7 1.569-.692 1.546-1.047 2.528z" transform="translate(-114.112 -542.457)"/><path d="m185.443 554.563a5.731 5.731 0 0 1 -1.746.91 4.123 4.123 0 0 1 -1.809.157 2.654 2.654 0 0 1 -1.548-.774 19.75 19.75 0 0 0 -.794 3.681 1.646 1.646 0 0 1 -.293.607 2.294 2.294 0 0 1 -1.652 1.485 3.366 3.366 0 0 1 -2.343-.125 2.187 2.187 0 0 1 -.837-.669 1.711 1.711 0 0 1 -.334-1.067 77.5 77.5 0 0 1 2.782-8.2q.293-.669.47-1.088t.324-.711q.146-.293.262-.512c.076-.147.171-.31.282-.492q.376-.627.868-1.474a9.864 9.864 0 0 1 .836-1.266 4.769 4.769 0 0 1 .732-.721 7.349 7.349 0 0 1 .858-.575q.471-.272 1.182-.711a3.623 3.623 0 0 1 5.333 1.757 7.932 7.932 0 0 1 .209 4.162q-.649 3.994-2.782 5.626zm-4.371-1.861a3.2 3.2 0 0 0 2.384-2.238 6.96 6.96 0 0 0 .23-3.555 16.111 16.111 0 0 0 -.868 1.694q-.387.879-.7 1.569-.691 1.546-1.046 2.528z" transform="translate(-137.171 -542.457)"/><path d="m214.172 551.543a34.433 34.433 0 0 1 -.293-4.936 2.309 2.309 0 0 1 .732-1.715 2.491 2.491 0 0 1 1.527-.858q.878-.062 1.129.983.168.586.419 1.359t.481 1.631q.23-.314.732-1.108t.941-1.422a9.481 9.481 0 0 1 1.882-2.133 2.317 2.317 0 0 1 1.37-.178 1.584 1.584 0 0 1 .836.429 1.062 1.062 0 0 1 .2.858q-.042 1.317-2.008 4.141a15.472 15.472 0 0 0 -.931 1.506q-.471.858-1.088 1.914t-1.182 2.1a28.946 28.946 0 0 0 -2.029 4.5c.014-.028.07 0 .167.094a1.353 1.353 0 0 1 .272.387.828.828 0 0 1 -.063 1.045 4.025 4.025 0 0 1 -4.831.669q-.984-.565-.648-1.4h-.063a17.928 17.928 0 0 1 1.046-2.248l1.213-2.185.941-1.673q-.356.083-.586-.5a3.9 3.9 0 0 1 -.166-1.26z" transform="translate(-161.446 -542.888)"/><path d="m261.2 560.822a5.38 5.38 0 0 1 -1.955-.261 3.914 3.914 0 0 1 -1.443-.826 2.3 2.3 0 0 1 -.7-1.224 2.061 2.061 0 0 1 .251-1.432q.544-.878 2.175-.523a13.267 13.267 0 0 0 1.7.272 1.8 1.8 0 0 0 .806-.125q1.526-.5 1.715-1.088.125-.439-.544-1.025a7.765 7.765 0 0 0 -.606-.5 4.114 4.114 0 0 1 -.565-.5 6.018 6.018 0 0 1 -1.642-1.788 3.624 3.624 0 0 1 -.492-2.206 7.656 7.656 0 0 1 .4-1.977 5.861 5.861 0 0 1 .732-1.391 5.929 5.929 0 0 1 2.008-1.736 11.123 11.123 0 0 1 2.28-.941 8.593 8.593 0 0 1 3.43-.063 2.494 2.494 0 0 1 1 .4q.418.293.837.607a1.207 1.207 0 0 1 .355 1.485 1.237 1.237 0 0 1 -.46.544 1.324 1.324 0 0 1 -.669.23 1.078 1.078 0 0 1 -.209.837 2.841 2.841 0 0 1 -1.673.627 4.95 4.95 0 0 0 -2.322.189q-.711.376-.523 1.631a1.043 1.043 0 0 0 .345.565q.3.293.711.627t.858.753a4.611 4.611 0 0 1 .784.962 4.338 4.338 0 0 1 -.188 4.5 6.274 6.274 0 0 1 -3.43 2.886 7.983 7.983 0 0 1 -2.966.491z" transform="translate(-190.715 -543.027)"/><path d="m295.079 554.738-1 2.551q-.21.586-.377 1.213a9.7 9.7 0 0 1 -.355 1.1 1.615 1.615 0 0 1 -.575.742 2.857 2.857 0 0 1 -.868.408 3.18 3.18 0 0 1 -.993.115 2.615 2.615 0 0 1 -.91-.188 1.052 1.052 0 0 1 -.627-1.38q.962-4.225 1.809-6.776t1.4-4.016q.553-1.464 1.161-3.1a1.869 1.869 0 0 1 .5-1.088 3.757 3.757 0 0 1 1.036-.795 4.729 4.729 0 0 1 1.244-.449 2.823 2.823 0 0 1 1.151-.032 1.131 1.131 0 0 1 .742.46 1.182 1.182 0 0 1 .031 1.025q-.753 1.924-1.067 2.719t-.564 1.422l-.586 1.381a4.395 4.395 0 0 0 1.108-.126 5.371 5.371 0 0 1 1.757-.188 1.113 1.113 0 0 1 .1-.356 46.417 46.417 0 0 1 1.318-4.685 2.587 2.587 0 0 1 2.7-1.841 1.812 1.812 0 0 1 1.3.419.933.933 0 0 1 .126 1.192q-1.925 5.4-2.719 8.512-.9 3.6-1.182 4.852a4.39 4.39 0 0 1 -.492 1.485 1.258 1.258 0 0 1 -.429.324c-.146.062-.289.122-.428.178a.661.661 0 0 0 -.335.418h-.062a1.2 1.2 0 0 1 -.732.586 2.577 2.577 0 0 1 -1.14.157 1.561 1.561 0 0 1 -.962-.419 1.083 1.083 0 0 1 -.2-1.118 16.235 16.235 0 0 1 .69-2.562q.481-1.369.763-2.143t.471-1.444a1.712 1.712 0 0 1 -.324.126 2.185 2.185 0 0 0 -.387.157 3.953 3.953 0 0 1 -.471.2c-.161.056-.317.112-.47.167a6.307 6.307 0 0 0 -.962.46zm2.364-1.4a1.781 1.781 0 0 0 .209-.062c-.084.024-.152.047-.209.061z" transform="translate(-211.525 -542.716)"/><path d="m330.981 545.74a5.59 5.59 0 0 1 2.928-1.882 3.549 3.549 0 0 1 2.092.084 2.07 2.07 0 0 1 2.008-.586 3.074 3.074 0 0 1 1.925 1.276 3.3 3.3 0 0 0 .178.439q.136.293.261.648a9.194 9.194 0 0 1 .146 5.605 17.265 17.265 0 0 1 -3.409 7.3 7.289 7.289 0 0 1 -1.694 1.527 5.21 5.21 0 0 1 -3.6 1.025 4.216 4.216 0 0 1 -2.175-.648q-3.493-1.735-2.28-7.236a16.975 16.975 0 0 1 3.62-7.552zm.251 11.106-.021.125.042.23a2.147 2.147 0 0 0 .418.994 1.6 1.6 0 0 0 .481.429q.209-.167.418-.314a1.825 1.825 0 0 0 .377-.356 12.642 12.642 0 0 0 2.217-4.6 14.854 14.854 0 0 0 .586-5.271q-.816 1.046-1.715 2.405t-1.422 2.322a11.284 11.284 0 0 0 -1.382 4.036z" transform="translate(-235.881 -543.004)"/><path d="m373.43 554.563a5.727 5.727 0 0 1 -1.746.91 4.122 4.122 0 0 1 -1.809.157 2.654 2.654 0 0 1 -1.547-.774 19.771 19.771 0 0 0 -.795 3.681 1.638 1.638 0 0 1 -.293.607 2.293 2.293 0 0 1 -1.653 1.485 3.365 3.365 0 0 1 -2.342-.125 2.184 2.184 0 0 1 -.836-.669 1.71 1.71 0 0 1 -.335-1.067 77.53 77.53 0 0 1 2.781-8.2q.293-.669.471-1.088t.324-.711q.146-.293.262-.512c.076-.147.17-.31.282-.492q.376-.627.868-1.474a9.851 9.851 0 0 1 .836-1.266 4.747 4.747 0 0 1 .732-.721 7.352 7.352 0 0 1 .857-.575q.47-.272 1.182-.711a3.623 3.623 0 0 1 5.331 1.756 7.939 7.939 0 0 1 .209 4.162q-.646 3.995-2.779 5.627zm-4.371-1.861a3.2 3.2 0 0 0 2.384-2.238 6.961 6.961 0 0 0 .23-3.555 16.078 16.078 0 0 0 -.868 1.694q-.387.879-.7 1.569-.691 1.546-1.046 2.528z" transform="translate(-258.482 -542.457)"/></svg>