<?xml version="1.0" encoding="UTF-8"?><svg id="_レイヤー_2" xmlns="http://www.w3.org/2000/svg" viewBox="0 0 337.06 282.88"><defs><style>.cls-1{fill:#2971b7;stroke-width:0px;}</style></defs><g id="_レイヤー_1-2"><path class="cls-1" d="m170.03,214.1c-17.33-.3-35.73-.65-51.09-9.75-6.93-4.11-12.4-9.84-16.31-16.87s-6.46-15.01-9.17-22.7c-2.91-8.28-6.64-16.59-7.34-25.44-.7-8.84,2.47-17.03,6.81-24.57,7.39-12.85,18.13-23.71,30.79-31.41,13.75-8.37,29.4-12.54,45.49-12.36,9.06.11,18.11,1.43,26.86,3.75,8.08,2.14,15.93,5.26,22.98,9.8,14.18,9.13,24.36,24.19,30.22,39.8s8.23,32.3,2.77,47.67c-5.46,15.37-19.38,24.23-33.35,31.09-8.38,4.12-16.95,7.87-25.55,11.49-4.26,1.8-8.52,3.69-12.88,5.24s-8.76,2.44-13.38,1.86c-4.36-.55-8.54-2.11-12.64-3.62-1.51-.56-2.16,1.86-.66,2.41,4.35,1.6,8.74,3.16,13.37,3.72s9.16-.28,13.54-1.8c4.6-1.59,9.07-3.6,13.55-5.49s8.84-3.76,13.22-5.72c14.98-6.7,31.64-13.84,41.54-27.59,9.83-13.66,10.22-31.76,6.59-47.6-3.85-16.85-12.3-33.19-24.71-45.33s-30.11-18.61-47.52-21.07c-17.35-2.45-34.93-.74-50.98,6.48-13.98,6.29-26.26,16.24-35.47,28.48-4.93,6.55-9.33,13.93-11.67,21.83-2.64,8.92-1.27,17.86,1.57,26.55,1.42,4.34,3.09,8.6,4.6,12.91,1.42,4.06,2.8,8.15,4.36,12.16,2.98,7.66,6.7,15.16,12.53,21.08,12.45,12.64,30.73,16.19,47.77,17.1,4.73.25,9.46.34,14.19.42,1.61.03,1.61-2.47,0-2.5h0Z"/><path class="cls-1" d="m203.94,53.35c1.19-3.06,2.6-6.64,5.42-8.58,3.47-2.39,8.2-.95,11.9.12,7.54,2.18,15.04,6.79,17.53,14.67,1.52,4.81.16,9.29-1.53,13.85-.56,1.51,1.86,2.16,2.41.66,1.67-4.51,3.01-9.02,1.9-13.85-.98-4.27-3.53-8.19-6.8-11.08-3.45-3.04-7.66-5.08-12.03-6.43s-9.55-2.83-13.76-.63c-3.99,2.08-5.89,6.63-7.43,10.6-.58,1.5,1.83,2.15,2.41.66h0Z"/><path class="cls-1" d="m198.93,53.99c13.54,9.47,28.17,17.28,43.54,23.31,1.5.59,2.15-1.83.66-2.41-15.17-5.95-29.59-13.72-42.95-23.06-1.32-.92-2.57,1.24-1.26,2.16h0Z"/><path class="cls-1" d="m232.12,71.99c-1.66,2.36-5.75,1.77-8.19,1.53-3.5-.34-7.03-1.18-10.2-2.75-5.62-2.78-10.22-8.12-10.47-14.61-.06-1.6-2.56-1.61-2.5,0,.3,7.65,5.69,14.05,12.48,17.13,3.71,1.68,7.71,2.53,11.76,2.81,3.35.24,7.17.16,9.29-2.86.93-1.32-1.24-2.57-2.16-1.26h0Z"/><path class="cls-1" d="m202.12,58.65c-1.65-.42-3.38-.03-4.79.9s-2.48,2.36-3.27,3.87c-.39.74-.75,1.5-1.07,2.27-.38.91-.39,1.95.37,2.67.6.57,1.45.75,2.24.64s1.5-.63,2.3-.81l-1.41-1.84c-.54,1.14-.34,2.49.72,3.27s2.47.58,3.33-.32c1.12-1.16-.58-2.85-1.77-1.77-.77.7-.67,1.9,0,2.62.71.76,1.87.74,2.69.16.39-.27.7-.64.92-1.06s.32-.91.59-1.3c.29-.42.8-.6,1.31-.58.68.03,1.25-.59,1.25-1.25,0-.7-.57-1.22-1.25-1.25-1.21-.05-2.43.49-3.19,1.44-.4.51-.61,1.08-.87,1.67.01-.02-.13.3-.17.26,0,0,.08-.02.09,0,.19.19.34-.04.52.3.11.21.04.59-.13.75l-1.77-1.77c-.06.07-.13.07-.05.06.14-.03-.05.02-.07.02.16.03-.05-.06-.06-.01.02-.04.13.05.14.05.07.03-.09-.12-.06-.05.02.05.04.13.02.01-.03-.22,0,.16,0-.06,0-.13,0,0-.03.06.47-.99-.3-2.08-1.41-1.84-.62.13-1.15.48-1.74.68-.03.01-.36.09-.24.07s-.2,0-.21,0c.22.02-.12-.03,0,0,.07.04.05.03-.06-.04l.08.05c.02.06.16.28.13.3.02-.01.09-.25.11-.29.12-.29.26-.58.4-.86.26-.55.53-1.09.83-1.61,1-1.72,2.81-3.55,4.9-3.02,1.56.4,2.23-2.01.66-2.41h0Z"/><path class="cls-1" d="m229.16,76.56c1.99,1.56,4.52,3.45,4.35,6.27-.08,1.25-.93,1.95-1.96,2.53-.09.05-.63.27-.65.34,0,0,.35.52.36.23,0-.15-.12-.36-.16-.51-.27-.86-.55-1.73-.82-2.59s-1.09-1.09-1.84-.75c-1.02.47-1.98,1.03-2.9,1.69l1.88,1.08c-.02-.48,0-.94.09-1.41.11-.55-.07-1.12-.57-1.41-.45-.27-1.16-.22-1.51.2-.12.14-.41.34-.48.5-.08.17-.03-.06.12,0,.21.09.22.16.3.39.15.45.16.14.27-.1.07-.16.15-.32.21-.49.12-.36.16-.77.06-1.14-.37-1.46-2.21-1.75-3.05-.55l2.28.96c.76-2.1,1.64-4.15,2.65-6.14.3-.6.16-1.36-.45-1.71-.56-.33-1.4-.16-1.71.45-1.11,2.18-2.08,4.44-2.91,6.74-.21.58.19,1.26.72,1.47.61.24,1.19.01,1.56-.51l.07-.09-.45.45-1.15-.7-.09.18c-.08.1-.12.25-.17.37-.17.38-.26.77-.22,1.18.06.64.44,1.18,1,1.49,1.2.64,2.41-.06,3.21-.98l-2.09-1.22c-.14.69-.21,1.38-.18,2.08.03.87,1.06,1.66,1.88,1.08.92-.65,1.88-1.21,2.9-1.69l-1.84-.75c.34,1.06.63,2.14,1.02,3.19.43,1.17,1.46,1.78,2.69,1.43.94-.27,1.87-.9,2.62-1.5s1.26-1.39,1.57-2.29c.59-1.74.2-3.77-.71-5.33-1-1.72-2.56-2.98-4.11-4.19-.53-.41-1.25-.52-1.77,0-.43.43-.54,1.35,0,1.77h0Z"/><path class="cls-1" d="m234.41,74.27c1.69,2.81,4.8,4.12,7.73,5.24,1.69.65,3.4.93,5.19.49s3.32-1.42,4.81-2.4l-1.84-1.41c-1.1,2.61-2.64,6.22-5.86,6.66-1.56.21-3.24-.48-4.62-1.16-1.48-.74-2.81-1.68-4.01-2.82s-2.93.65-1.77,1.77c1.44,1.38,3.08,2.55,4.88,3.39,1.9.89,3.97,1.59,6.09,1.25,4.21-.69,6.21-4.91,7.68-8.41.43-1.02-.98-1.97-1.84-1.41-1.24.81-2.51,1.67-3.95,2.08s-2.75.11-4.12-.42c-2.29-.87-4.92-1.89-6.24-4.09-.83-1.38-2.99-.12-2.16,1.26h0Z"/><path class="cls-1" d="m201.55,54.42c-.84-.83-1.77-1.69-2.27-2.79-.63-1.39-.17-3-.34-4.48-.3-2.58-1.56-4.9-3.22-6.86-3.13-3.67-8.25-6.52-13.19-5.38-4.49,1.04-7.12,5.51-7.18,9.91-.07,4.74,2.94,8.79,6.75,11.33,5.32,3.55,11.94,3.95,18.13,4.28,1.61.09,1.6-2.41,0-2.5-4.95-.26-10.19-.49-14.72-2.71-3.57-1.75-7.01-4.87-7.57-9.01-.49-3.57,1.22-7.75,4.92-8.8,4.31-1.22,8.95,1.82,11.48,5.11.77,1,1.42,2.13,1.8,3.34.42,1.34.35,2.58.33,3.96-.03,2.68,1.5,4.56,3.32,6.36,1.15,1.13,2.92-.64,1.77-1.77h0Z"/><path class="cls-1" d="m186.32,42.91c1.61,0,1.61-2.5,0-2.5s-1.61,2.5,0,2.5h0Z"/><path class="cls-1" d="m190.13,46.61c1.61,0,1.61-2.5,0-2.5s-1.61,2.5,0,2.5h0Z"/><path class="cls-1" d="m181.44,48.77c1.42.97,2.94,1.76,4.54,2.41.28.11.71.02.96-.13s.51-.45.57-.75c.07-.32.06-.68-.13-.96s-.43-.44-.75-.57c-.09-.04-.38-.21-.06-.02-.09-.05-.19-.08-.29-.12-.17-.07-.33-.15-.49-.23-.36-.17-.72-.35-1.08-.54-.7-.38-1.37-.79-2.02-1.24-.54-.37-1.41-.12-1.71.45-.34.63-.13,1.31.45,1.71h0Z"/><path class="cls-1" d="m212.92,48.11c.58,2.06,1.51,4.03,2.75,5.77.38.53,1.11.84,1.71.45.53-.34.85-1.14.45-1.71-.58-.82-1.1-1.68-1.53-2.58-.11-.23-.23-.46-.32-.71.11.3,0-.01-.02-.06-.05-.12-.1-.24-.14-.36-.18-.48-.34-.97-.48-1.47-.18-.63-.89-1.08-1.54-.87s-1.06.86-.87,1.54h0Z"/><path class="cls-1" d="m220.99,55.56l5.59-1.7c.62-.19,1.08-.88.87-1.54s-.87-1.08-1.54-.87l-5.59,1.7c-.62.19-1.08.88-.87,1.54s.87,1.08,1.54.87h0Z"/><path class="cls-1" d="m227.74,56.47l1.65,3.82c.12.27.48.5.75.57.3.08.7.05.96-.13s.5-.43.57-.75c.08-.35.01-.64-.13-.96l-1.65-3.82c-.12-.27-.48-.5-.75-.57-.3-.08-.7-.05-.96.13s-.5.43-.57.75c-.08.35-.01.64.13.96h0Z"/><path class="cls-1" d="m234.06,62.53c.6.29,1.26.46,1.93.4s1.32-.23,1.87-.63c.27-.2.48-.41.57-.75.08-.3.05-.7-.13-.96s-.43-.5-.75-.57-.69-.07-.96.13c-.15.11-.31.2-.48.27l.3-.13c-.21.09-.42.14-.64.17l.33-.04c-.22.03-.44.03-.67,0l.33.04c-.22-.03-.44-.09-.64-.17l.3.13s-.07-.03-.11-.05c-.31-.15-.62-.22-.96-.13-.29.08-.6.3-.75.57-.15.29-.23.64-.13.96.1.3.28.61.57.75h0Z"/><path class="cls-1" d="m127.05,78.42c-1.03-19.6-1.07-39.25-.13-58.85.08-1.61-2.42-1.6-2.5,0-.95,19.61-.9,39.25.13,58.85.08,1.6,2.58,1.61,2.5,0h0Z"/><path class="cls-1" d="m190.39,70.77c-.75-3.5-.93-7.08-.58-10.63.06-.67-.62-1.25-1.25-1.25-.73,0-1.19.58-1.25,1.25-.36,3.78-.12,7.59.67,11.3.14.66.91,1.04,1.54.87.68-.19,1.01-.88.87-1.54h0Z"/><path class="cls-1" d="m185.19,13.81c.85,5.95,1.34,11.94,1.5,17.94.04,1.61,2.54,1.61,2.5,0-.17-6.23-.71-12.44-1.59-18.61-.1-.67-.94-1.03-1.54-.87-.72.19-.97.87-.87,1.54h0Z"/><path class="cls-1" d="m124.93,12.6c19.21-5.52,38.98-8.92,58.93-10.1,1.6-.09,1.61-2.6,0-2.5-20.17,1.19-40.18,4.61-59.6,10.19-1.54.44-.89,2.86.66,2.41h0Z"/><path class="cls-1" d="m132.34,34.89c15.83-4.49,31.94-7.96,48.21-10.39,1.59-.24.91-2.65-.66-2.41-16.28,2.42-32.38,5.89-48.21,10.39-1.55.44-.89,2.85.66,2.41h0Z"/><path class="cls-1" d="m139.29,14.3c-1.04.23-2.14.51-3.03,1.12-1.1.74-1.78,1.82-1.96,3.14s-.17,2.79.49,3.92c.36.62.94,1.1,1.62,1.33.75.25,1.45.03,2.14-.27.24-.1.09-.03.04-.02.07-.03.15-.05.22-.07.2-.06.39-.11.58-.19.41-.17.77-.43.98-.83.5-.95.08-2.05-.93-2.4l-.33,2.46c.85-.09,1.7-.18,2.55-.27.65-.07,1.28-.53,1.25-1.25-.03-.62-.55-1.32-1.25-1.25-.85.09-1.7.18-2.55.27-.63.07-1.14.43-1.23,1.08s.3,1.16.9,1.37c-.59-.21-.89-.83-.52-1.31.08-.1.33-.19.11-.15-.3.06-.58.18-.85.3-.08.03-.15.06-.22.1.09-.04.1-.04.02-.01-.06.02-.11.04-.17.05.13,0,.13,0,0,0,.21.02.08,0-.06-.03.24.07.02,0-.06-.06.22.15,0-.03-.05-.08.18.2-.03-.07-.07-.14-.04-.08-.04-.07,0,.02-.03-.08-.05-.16-.07-.23-.03-.12-.06-.24-.07-.36.04.24,0-.11,0-.16-.01-.14-.02-.28-.02-.42,0-.25,0-.51,0-.76,0-.12.02-.23.03-.35-.04.26.02-.07.03-.13.03-.13.08-.26.11-.39.03-.08.02-.07-.02.03.03-.07.07-.14.1-.21.05-.09.11-.18.17-.27-.16.23.02,0,.06-.05.08-.08.17-.16.26-.24.07-.06.05-.04-.05.04.05-.04.11-.08.17-.11.17-.11.36-.2.54-.29.26-.13-.17.05.09-.03.13-.05.26-.1.4-.14.44-.14.88-.24,1.33-.34.64-.14,1.07-.92.87-1.54-.22-.67-.85-1.03-1.54-.87h0Z"/><path class="cls-1" d="m151.53,14.21c-.46-.09-.88-.06-1.29.19-.31.19-.57.5-.73.83-.29.6-.47,1.34-.43,2.01.06,1.19.78,2.29,1.86,2.81,1.16.56,2.5.47,3.61-.2.54-.32,1-.76,1.35-1.27.48-.69.42-1.6-.05-2.27-.77-1.1-2.02-1.88-3.29-2.26-.63-.19-1.39.22-1.54.87s.2,1.34.87,1.54c.17.05.33.12.5.17-.02,0-.28-.13-.09-.04.03.02.07.03.1.05.09.04.18.09.27.14.15.09.3.18.45.28.04.03.08.06.12.09.11.08-.11-.08-.1-.08.07.07.16.13.23.2.13.12.25.25.37.37.16.16-.06-.06-.05-.07,0,0,.09.14.09.13.02.03.08.16,0-.01-.03-.09-.04-.11-.02-.04.03.1.02.05-.02-.15,0,.02.05-.28.02-.15-.03.15.14-.23.04-.11-.18.21.15-.16,0,0-.12.14-.25.26-.39.38-.1.09.11-.09.11-.08-.04.02-.08.06-.12.08-.07.05-.14.09-.22.13-.07.04-.17.06-.23.11,0,0,.25-.09.13-.06-.06.02-.11.04-.17.06-.08.02-.16.04-.24.06-.05.01-.22.03-.01,0s.07,0,.02,0c-.08,0-.17,0-.25,0-.05,0-.1,0-.14,0-.16,0,.28.06.13.02-.07-.02-.15-.03-.22-.05-.05-.01-.31-.12-.1-.03s-.04-.03-.09-.05c-.08-.04-.15-.1-.22-.14.31.19.09.06,0-.02-.05-.05-.09-.1-.13-.14-.14-.15.07.1.08.1-.02-.01-.06-.1-.07-.11-.01-.02-.12-.23-.12-.23.01,0,.09.26.07.15-.01-.05-.03-.1-.05-.16,0-.03-.01-.06-.02-.1-.03-.13,0,.33.02.08,0-.08.04-.27.01-.35,0,.03-.06.3,0,.07.01-.06.02-.11.03-.17.03-.11.05-.23.08-.34.01-.04.02-.08.04-.12.06-.2-.12.22-.04.1.02-.03.03-.06.05-.08.09-.18-.17.18-.07.09s-.17.12-.15.11c-.19.12-.45.12-.66.08.64.13,1.38-.18,1.54-.87.14-.62-.19-1.4-.87-1.54h0Z"/><path class="cls-1" d="m162.49,18.76c.04-.47.08-.94.13-1.42.01-.1.02-.2.04-.3-.06.32,0-.06.02-.12.03-.22.07-.43.11-.65.09-.44.2-.88.36-1.31.04-.11.07-.22.12-.33-.14.27.02-.03.04-.07.1-.21.21-.42.34-.62.08-.13.13-.18.01-.03.16-.14.07-.1-.26.13.14-.03.12-.03-.06,0,.02-.02.26,0,.28.01-.18-.03-.2-.02-.06,0l.09.02c.06.02.12.04.17.06-.16-.07-.17-.08-.05-.02.08.05.16.09.24.14.05.03.1.07.15.1l-.11-.08c.09.04.2.18.27.25.06.06.14.13.18.21-.16-.27,0,0,.03.07.07.12.14.24.2.36.02.04.15.35.04.08.18.46.3.92.4,1.4.13.64.93,1.07,1.54.87.68-.22,1.01-.85.87-1.54-.38-1.86-1.39-3.9-3.42-4.34-.62-.14-1.25-.14-1.83.16-.49.25-.81.77-1.06,1.23-.43.8-.72,1.68-.9,2.56-.21,1.04-.31,2.1-.39,3.15-.05.65.61,1.28,1.25,1.25.72-.03,1.19-.55,1.25-1.25h0Z"/><path class="cls-1" d="m162.73,17.52c.44.06.87.11,1.31.07s.87-.1,1.29-.24c.31-.1.58-.29.75-.57.16-.27.22-.66.13-.96s-.29-.59-.57-.75-.64-.23-.96-.13c-.25.08-.5.14-.76.17l.33-.04c-.38.05-.76.05-1.14,0l.33.04h-.04c-.17-.06-.33-.06-.5-.03-.17,0-.32.06-.46.15-.26.15-.51.45-.57.75-.07.32-.06.68.13.96l.2.25c.16.15.34.26.55.32h0Z"/><path class="cls-1" d="m170.19,11c.27,1.53.53,3.05.81,4.58.09.51.38.99.86,1.23.45.22.98.24,1.48.27.86.05,1.7-.02,2.55-.14.29-.04.61-.34.75-.57.16-.27.22-.66.13-.96s-.29-.59-.57-.75c-.32-.17-.61-.18-.96-.13-.32.05.18-.02-.01,0-.08,0-.16.02-.25.03-.16.02-.33.03-.49.03-.33.02-.66.02-.99,0-.16,0-.33-.02-.49-.03-.1,0-.2-.02-.29-.03.13.01.25.03.36.1.17.09.29.22.35.39.04.11.05.12.02.02,0-.05-.02-.11-.03-.17-.03-.18-.06-.36-.1-.54l-.7-3.99c-.11-.65-.94-1.07-1.54-.87-.69.22-.99.85-.87,1.54h0Z"/><path class="cls-1" d="m232.24,204.94c-5.55-.37-11.18.28-16.49,1.95-2.56.81-5.06,1.85-7.43,3.1-2.18,1.15-4.71,2.49-6.49,4.23s.53,3.89,1.98,4.92c1.9,1.36,4.19,2.03,6.49,2.27,2.69.28,5.44-.2,8.04-.89s5.19-1.48,7.66-2.47c4.74-1.9,9.73-6.25,8-11.95-.47-1.54-2.88-.88-2.41.66,1.3,4.27-2.77,7.46-6.25,8.87-2.04.83-4.19,1.47-6.31,2.09s-4.47,1.19-6.78,1.25c-1.95.05-3.96-.26-5.73-1.13-.81-.4-1.56-.89-2.21-1.52-.15-.15-.35-.5-.53-.57-.55-.22.18.04-.19.23.53-.26,1.05-.8,1.54-1.13,3.58-2.5,7.54-4.42,11.72-5.69,4.99-1.51,10.19-2.07,15.39-1.73,1.61.11,1.6-2.39,0-2.5h0Z"/><path class="cls-1" d="m223.99,207.06c-.13,1.62-.26,3.25-.39,4.87-.05.65.61,1.28,1.25,1.25.72-.03,1.19-.55,1.25-1.25.13-1.62.26-3.25.39-4.87.05-.65-.61-1.28-1.25-1.25-.72.03-1.19.55-1.25,1.25h0Z"/><path class="cls-1" d="m215.47,208.68l-.38,4.47c-.06.65.61,1.28,1.25,1.25.72-.03,1.19-.55,1.25-1.25l.38-4.47c.06-.65-.61-1.28-1.25-1.25-.72.03-1.19.55-1.25,1.25h0Z"/><path class="cls-1" d="m293.98,139.55c.15,13.22-.94,26.44-3.3,39.45-.28,1.57,2.12,2.25,2.41.66,2.39-13.23,3.54-26.67,3.38-40.11-.02-1.61-2.52-1.61-2.5,0h0Z"/><path class="cls-1" d="m296.28,161.48c1.66.04,3.26-.38,4.88-.67,1.45-.26,3.01-.35,4.24.6,1.03.79,1.67,2.05,2.14,3.22.56,1.38,1.07,2.89,1.26,4.38s-.02,2.96-1.16,4c-1.06.96-2.52,1.38-3.87,1.75-3.65,1.01-7.39,1.71-11.16,2.12-1.58.17-1.6,2.67,0,2.5,3.46-.37,6.9-.96,10.28-1.8,2.69-.67,5.74-1.42,7.41-3.85s.99-5.83.09-8.52c-.8-2.39-1.95-5.01-4.27-6.28-3.21-1.76-6.52.15-9.86.07-1.61-.04-1.61,2.46,0,2.5h0Z"/><path class="cls-1" d="m292.21,159.4c-3.5,0-7,0-10.5.01-1.53,0-3.29-.23-4.78.2s-2.18,1.7-2.68,3.12c-1,2.79-1.92,5.94-1.03,8.89.78,2.58,2.85,4.42,5.22,5.56,3.19,1.52,6.77,2.13,10.21,2.8,1.57.31,2.24-2.1.66-2.41-5.28-1.03-14.63-2.08-13.91-9.45.16-1.62.7-3.2,1.25-4.72.27-.75.43-1.33,1.3-1.45s1.8-.03,2.67-.03c3.86,0,7.72,0,11.58-.01,1.61,0,1.61-2.5,0-2.5h0Z"/><path class="cls-1" d="m288.15,166.77c1.61,0,1.61-2.5,0-2.5s-1.61,2.5,0,2.5h0Z"/><path class="cls-1" d="m287.34,174.89c1.61,0,1.61-2.5,0-2.5s-1.61,2.5,0,2.5h0Z"/><path class="cls-1" d="m285.54,170.59c.8-1.14.78-2.74.13-3.94s-2.09-1.97-3.47-1.85c-.88.08-1.65.38-2.32.97-.49.43-.48,1.33,0,1.77.53.48,1.24.46,1.77,0,.04-.03.08-.07.12-.1l-.25.2c.16-.12.34-.23.53-.31l-.3.13c.22-.09.45-.15.69-.18l-.33.04c.24-.03.48-.03.72,0l-.33-.04c.22.03.43.09.64.18l-.3-.13c.19.08.36.18.53.31l-.25-.2c.15.12.28.25.39.39l-.2-.25c.13.17.24.36.33.56l-.13-.3c.09.22.15.45.18.68l-.04-.33c.03.24.03.47,0,.71l.04-.33c-.03.22-.09.43-.17.63l.13-.3c-.07.15-.15.3-.25.44-.18.25-.21.68-.13.96s.3.6.57.75c.29.15.64.23.96.13s.55-.3.75-.57h0Z"/><path class="cls-1" d="m276.54,165.96c-.14.81-.27,1.62-.41,2.43-.05.17-.06.33-.02.5,0,.17.06.32.15.46.15.26.45.51.75.57.32.07.68.06.96-.13.26-.17.52-.43.57-.75.14-.81.27-1.62.41-2.43.05-.17.06-.33.02-.5,0-.17-.06-.32-.15-.46-.15-.26-.45-.51-.75-.57-.32-.07-.68-.06-.96.13-.26.17-.52.43-.57.75h0Z"/><path class="cls-1" d="m274.56,161.24c-2.83-1.7-5.8-3.15-8.88-4.35-1.37-.54-3.05-1.41-4.56-1.14-1.34.24-2.16,1.35-2.54,2.58-.42,1.33-.42,2.86-.45,4.24-.03,1.66.09,3.39.61,4.98.83,2.58,2.7,4.94,5.38,5.71,1.52.44,3.12.32,4.67.21s3.1-.26,4.45.54,2.65-1.34,1.26-2.16c-2.21-1.3-4.67-.9-7.1-.79-1.11.05-2.27.04-3.29-.46-.94-.46-1.69-1.23-2.23-2.12-1.41-2.3-1.35-5.11-1.16-7.7.05-.67.02-2.06.66-2.5.37-.25.94.05,1.32.18.69.23,1.37.48,2.05.74,2.97,1.14,5.82,2.57,8.55,4.21,1.38.83,2.64-1.33,1.26-2.16h0Z"/><path class="cls-1" d="m268.8,159.39c.21-.67.43-1.34.69-2,.04-.1.08-.2.11-.29,0-.02.1-.23.06-.14s.05-.12.06-.14c.03-.08.07-.15.1-.23.16-.34.32-.67.51-.99.17-.3.36-.58.56-.87.04-.06.1-.14.02-.03.05-.06.1-.12.15-.18.11-.14.23-.27.36-.39.11-.11.22-.22.34-.32.07-.06.15-.13.23-.19-.1.08-.04.03.03-.02.3-.2.61-.38.94-.52l-1.84-1.41c-.41,2.88-.83,5.76-1.24,8.64-.1.67.16,1.34.87,1.54.59.16,1.44-.2,1.54-.87.41-2.88.83-5.76,1.24-8.64.16-1.12-.79-1.88-1.84-1.41-3.07,1.38-4.35,4.83-5.29,7.81-.2.64.24,1.36.87,1.54.67.19,1.33-.23,1.54-.87h0Z"/><path class="cls-1" d="m271.78,151.09l-.41-.81c-.08-.15-.19-.26-.32-.35-.12-.11-.26-.19-.43-.22-.17-.05-.33-.06-.5-.02-.17,0-.32.06-.46.15l-.25.2c-.15.16-.26.34-.32.55l-.04.33c0,.23.06.44.17.63l.41.81c.08.15.19.26.32.35.12.11.26.19.43.22.17.05.33.06.5.02.17,0,.32-.06.46-.15l.25-.2c.15-.16.26-.34.32-.55l.04-.33c0-.23-.06-.44-.17-.63h0Z"/><path class="cls-1" d="m271.39,150.33s.03-.04.04-.06l-.2.25c.09-.12.19-.22.31-.31l-.25.2c.13-.09.26-.17.41-.23l-.3.13c.17-.07.35-.12.53-.14l-.33.04c.18-.02.37-.02.55,0l-.33-.04c.18.03.36.07.53.14l-.3-.13c.13.06.26.13.38.22l-.25-.2c.11.08.2.18.29.28l-.2-.25c.09.12.16.24.22.37l-.13-.3c.06.16.11.32.13.48l-.04-.33c.02.18.02.36,0,.54l.04-.33c-.03.19-.08.38-.15.56l.13-.3c-.07.16-.15.3-.25.44l.2-.25c-.09.11-.19.22-.3.31l.25-.2c-.09.07-.18.12-.28.17-.27.14-.5.46-.57.75s-.05.7.13.96c.38.59,1.09.77,1.71.45,1.29-.67,1.89-2.33,1.51-3.7-.2-.73-.69-1.38-1.35-1.75-.28-.16-.61-.29-.93-.35-.47-.08-.85-.08-1.32,0-.35.05-.7.19-1.01.36-.42.24-.72.56-1,.94-.18.25-.2.68-.13.96s.3.6.57.75c.29.15.64.23.96.13s.55-.3.75-.57h0Z"/><path class="cls-1" d="m264.6,173.98c.83,3.41,2.22,6.69,4.1,9.65.48.76,1.7.86,2.16,0,1.65-3.06,2.14-6.59,1.43-9.99-.14-.66-.92-1.04-1.54-.87-.68.19-1.01.87-.87,1.54.57,2.7.15,5.6-1.17,8.06h2.16c-1.78-2.8-3.07-5.84-3.85-9.05-.16-.66-.9-1.05-1.54-.87-.67.18-1.03.88-.87,1.54h0Z"/><path class="cls-1" d="m273.61,182.88c-.51-.33-1.02-.63-1.59-.84s-1.24-.25-1.86-.12c-.54.11-1.12.42-1.47.85-.5.61-.71,1.34-.55,2.12.12.56.48,1.09.92,1.45.22.18.44.35.71.46.4.18.74.28,1.18.32,1.2.13,2.42-.42,3.1-1.42.4-.6.48-1.34.37-2.04s-.54-1.27-1.1-1.68c-.25-.18-.68-.2-.96-.13s-.6.3-.75.57c-.15.29-.23.64-.13.96s.3.55.57.75l.04.03-.25-.2c.09.07.16.14.23.23l-.2-.25c.06.09.11.18.16.28l-.13-.3c.05.13.09.26.11.4l-.04-.33c.02.14.01.28,0,.42l.04-.33c-.02.14-.06.27-.11.41l.13-.3c-.05.12-.11.22-.19.33l.2-.25c-.1.12-.21.23-.33.32l.25-.2c-.13.09-.26.17-.4.23l.3-.13c-.19.08-.39.14-.6.17l.33-.04c-.21.03-.42.03-.63,0l.33.04c-.17-.02-.34-.07-.5-.13l.3.13c-.18-.08-.35-.17-.5-.29l.25.2c-.12-.1-.23-.2-.33-.33l.2.25c-.08-.11-.15-.22-.2-.34l.13.3c-.04-.09-.06-.18-.08-.28l.04.33c-.01-.1-.01-.19,0-.29l-.04.33c.01-.1.04-.19.07-.28l-.13.3c.04-.1.1-.19.17-.28l-.2.25c.07-.09.15-.16.24-.23l-.25.2c.1-.08.21-.14.33-.19l-.3.13c.15-.06.31-.11.47-.13l-.33.04c.17-.02.33-.02.5,0l-.33-.04c.25.04.48.11.71.2l-.3-.13c.41.17.78.41,1.15.65.55.36,1.41.13,1.71-.45.33-.62.14-1.33-.45-1.71h0Z"/><path class="cls-1" d="m260.36,161.22c-.79-.57-1.58-1.14-2.37-1.71-.25-.18-.68-.2-.96-.13s-.6.3-.75.57c-.15.29-.23.64-.13.96l.13.3c.11.19.26.34.45.45.79.57,1.58,1.14,2.37,1.71.25.18.68.2.96.13s.6-.3.75-.57c.15-.29.23-.64.13-.96l-.13-.3c-.11-.19-.26-.34-.45-.45h0Z"/><path class="cls-1" d="m256.86,165.87l.42,1.62c.08.3.31.59.57.75.14.09.3.14.46.15.17.04.33.03.5-.02.3-.1.59-.29.75-.57s.21-.63.13-.96l-.42-1.62c-.08-.3-.31-.59-.57-.75-.14-.09-.3-.14-.46-.15-.17-.04-.33-.03-.5.02-.3.1-.59.29-.75.57s-.21.63-.13.96h0Z"/><path class="cls-1" d="m259.26,167.21c-1.21-.17-2.43-.34-3.64-.5-.35-.05-.65-.06-.96.13-.26.15-.51.45-.57.75-.07.32-.06.68.13.96.16.25.43.53.75.57,1.21.17,2.43.34,3.64.5.35.05.65.06.96-.13.26-.15.51-.45.57-.75.07-.32.06-.68-.13-.96-.16-.25-.43-.53-.75-.57h0Z"/><path class="cls-1" d="m48.35,176.15c7.33-.6,13.98-3.78,20.17-7.58,1.61-.99,3.19-2.02,4.77-3.06,1.32-.87,2.77-1.66,2.73-3.45s-1.2-3.63-1.87-5.22c-.78-1.83-1.6-3.65-2.45-5.45s-1.81-3.72-2.77-5.56c-.76-1.45-1.4-3.19-3.22-3.47s-3.81.09-5.59.33c-1.89.26-3.76.65-5.6,1.14-3.87,1.03-7.62,2.48-11.31,4.03-1.72.73-3.45,1.44-5.14,2.23-1.52.71-2.49,1.91-2.36,3.65.14,1.86,1.14,3.72,1.87,5.41.85,1.97,1.77,3.9,2.78,5.79,2.01,3.79,4.32,7.4,6.9,10.83.96,1.27,3.13.03,2.16-1.26-3.91-5.19-7.22-10.84-9.76-16.82-.5-1.18-1.51-2.81-1.46-4.13.05-1.43,2.97-2.11,4.06-2.59,3.09-1.34,6.21-2.62,9.4-3.67s6.55-1.92,9.93-2.29c1.28-.14,3.44-.71,4.29.39,1.05,1.38,1.76,3.33,2.53,4.88,1.54,3.11,2.98,6.28,4.3,9.5.26.64.68,1.36.78,2.05.13.82-.83,1.11-1.44,1.51-1.33.88-2.67,1.75-4.03,2.6-6,3.74-12.49,7.11-19.65,7.7-1.59.13-1.61,2.63,0,2.5h0Z"/><path class="cls-1" d="m54.74,167.06c-1.89-3.96-3.99-7.82-6.27-11.57-.84-1.37-3-.12-2.16,1.26,2.28,3.75,4.38,7.61,6.27,11.57.29.61,1.16.77,1.71.45.62-.36.74-1.1.45-1.71h0Z"/><path class="cls-1" d="m57.81,165.58c1.13-.25,2.35-.68,3.17-1.53,1.08-1.12,1.04-2.57.37-3.89-1.53-2.99-3.31-5.88-5.03-8.77-.26-.44-.9-.77-1.41-.57-1.37.53-2.64,1.29-3.66,2.36-.57.6-1.03,1.32-1.03,2.18,0,.79.39,1.51.8,2.16,1.79,2.88,3.59,5.75,5.38,8.63.85,1.36,3.01.11,2.16-1.26-1.47-2.35-2.93-4.71-4.4-7.06-.35-.56-.7-1.12-1.05-1.68-.25-.41-.52-.67-.23-1.04.65-.84,1.73-1.49,2.7-1.87l-1.41-.57c1.42,2.39,2.81,4.79,4.17,7.21.3.54.66,1.08.91,1.66.07.17.16.37.13.56.03-.13-.08.15-.05.09-.41.64-1.5.85-2.17,1-1.57.35-.91,2.76.66,2.41h0Z"/><path class="cls-1" d="m66.63,158.71c-1.38-3.33-2.75-6.66-4.13-10-.26-.62-.83-1.07-1.54-.87-.59.16-1.13.91-.87,1.54,1.38,3.33,2.75,6.66,4.13,10,.26.62.83,1.07,1.54.87.59-.16,1.13-.91.87-1.54h0Z"/><path class="cls-1" d="m51.8,174.01c-1.95-4-3.9-8-5.85-12.01l-2.93-6c-.49-1-1-1.99-1.46-3-.17-.38-.37-.5-.1-.81.22-.25.81-.33,1.12-.4l-1.22-.32c2.65,3.01,3.93,7.28,5.49,10.91,1.77,4.1,3.54,8.21,5.31,12.31l1.08-1.88c-.4-.02-.81-.04-1.21-.05-1.61-.07-1.61,2.43,0,2.5.4.02.81.04,1.21.05,1.04.05,1.43-1.07,1.08-1.88-1.83-4.25-3.66-8.5-5.5-12.75-1.62-3.75-2.96-7.87-5.7-10.98-.3-.34-.8-.42-1.22-.32-1.67.41-3.59,1.56-3.07,3.57.31,1.2,1.06,2.35,1.6,3.46l1.88,3.86c2.44,5,4.88,10.01,7.31,15.01.7,1.45,2.86.18,2.16-1.26h0Z"/><path class="cls-1" d="m40.31,149.32c-1.19-.69-2.38-1.37-3.58-2.06-.31-.18-.62-.35-.92-.53-.17-.1-.06-.05.02.15.06.06.09.13.08.2l.03-.11c-.06.12-.06.12.01,0l.06-.09c-.13.21.05-.03.09-.07-.12.12-.03.03.05-.03.05-.03.1-.06.15-.08-.11.04-.13.05-.04.02.09-.03.18-.06.27-.08.04-.01.38-.04.13-.03.1,0,.2,0,.29,0,.06,0,.12,0,.18,0-.12-.02-.13-.02-.04,0,.1.02.19.04.29.07.04.01.34.15.14.04.19.09.41.25.5.32.79.67,1.24,1.65,1.72,2.61s2.02.69,2.28-.3c.36-1.34.73-2.69,1.09-4.03.1-.37.2-.73.3-1.1.03-.13.07-.25.11-.38.02-.05.06-.29.05-.14.12-.18.08-.16-.11.06l-.08.03c-.14.04-.17-.01-.29-.03l.11.06c-.07-.06-.08-.06-.01,0,.06.06.06.06,0,0,.07.12.08.14.04.07-.13.89-.71,2.08-1.13,3.01-.54,1.19-1.16,2.33-1.94,3.38-.4.54-.09,1.4.45,1.71.64.37,1.31.09,1.71-.45,1.01-1.35,1.74-2.87,2.4-4.42s1.71-3.6.25-5.07c-.61-.61-1.51-.91-2.34-.63-.88.29-1.31,1.11-1.55,1.95-.5,1.77-.96,3.54-1.44,5.31l2.28-.3c-.68-1.38-1.45-2.75-2.76-3.62-1.2-.8-2.87-.88-4.13-.18-1.55.86-2.24,3.07-.6,4.22.7.49,1.49.87,2.22,1.3l2.44,1.41c1.4.81,2.66-1.35,1.26-2.16h0Z"/><path class="cls-1" d="m58.33,144.29c.02-.59.19-1.21.39-1.86s.44-1.3.58-1.98c.28-1.32.28-2.76-.4-3.97-.72-1.28-2.05-1.87-3.46-2.01-.59-.06-1.18-.01-1.76.06-.77.09-1.52.18-2.21.54-.6.31-.78,1.15-.45,1.71.35.61,1.11.76,1.71.45-.1.05.19-.06.24-.08.14-.03.29-.06.43-.08.12-.02.25-.04.37-.06-.23.03.12-.01.17-.02.5-.05,1.01-.07,1.51-.03.36.03-.2-.06.15.03.12.03.23.05.35.09.03.01.34.16.14.05.11.06.2.11.31.18-.18-.11.09.08.12.11.02.02.23.29.11.12.07.1.12.2.18.31.14.27-.02-.15.05.14.03.12.06.23.09.35.07.25,0-.13.02.15.01.25.02.5,0,.75,0,.05-.05.4-.01.17-.02.12-.04.25-.07.37-.06.28-.13.55-.22.82-.36,1.22-.79,2.4-.84,3.68-.03.68.59,1.25,1.25,1.25.7,0,1.22-.57,1.25-1.25h0Z"/><path class="cls-1" d="m51.28,136.28c.05.03.1.07.15.1.19.13-.23-.2-.06-.04.07.07.15.14.22.21.07.07.16.23.24.28-.05-.02-.19-.26-.07-.08.04.05.07.1.1.15.06.1.11.19.16.29.03.05.06.11.08.17-.01-.06-.12-.3-.05-.1.08.22.13.44.17.67l-.04-.33c.03.24.03.47,0,.71l.04-.33c-.02.14-.04.27-.08.4-.02.06-.04.11-.06.17-.07.2.15-.31,0-.02-.02.05-.05.09-.08.13-.13.2.02-.07.08-.09-.07.02-.18.2-.24.26-.09.08-.22.13.1-.07-.05.03-.1.07-.15.1-.09.06-.19.1-.29.16.35-.19.2-.08.08-.04-.06.02-.11.04-.17.05-.12.03-.23.05-.35.07l.33-.04c-.22.03-.43.03-.65,0l.33.04c-.16-.02-.32-.07-.47-.12.4.12.16.07.04,0-.04-.02-.08-.05-.12-.08-.15-.1.22.19.12.09-.05-.06-.11-.12-.17-.17-.08-.07.19.28.09.12-.02-.04-.05-.08-.07-.11,0-.02-.08-.14-.08-.15,0,0,.12.33.04.09-.04-.11-.06-.23-.08-.35l.04.33c-.03-.22-.02-.44,0-.66l-.04.33c.03-.18.07-.35.13-.52.01-.04.03-.08.05-.13-.08.19-.1.23-.04.11.03-.06.06-.12.09-.18.04-.08.1-.15.14-.23.08-.1.05-.07-.07.09.03-.04.06-.08.09-.11.12-.14.25-.26.39-.38.03-.02.06-.05.08-.07.1-.08.07-.06-.08.06.08-.04.16-.12.24-.17.15-.1.31-.2.47-.29.33-.19.68-.34,1.03-.5.27-.12.5-.48.57-.75.08-.3.05-.7-.13-.96s-.43-.5-.75-.57c-.35-.08-.64-.02-.96.13-1.28.56-2.62,1.34-3.27,2.64-.39.79-.54,1.61-.4,2.49.11.72.53,1.38,1.1,1.83,1.07.82,2.47.82,3.66.29s1.95-1.82,1.98-3.15c.04-1.58-.87-3.07-2.17-3.92-.55-.36-1.41-.13-1.71.45-.33.62-.14,1.33.45,1.71h0Z"/><path class="cls-1" d="m63.79,170.66c1.68,3.46,6.11,5.29,9.74,4.04.64-.22,1.06-.86.87-1.54-.17-.62-.9-1.09-1.54-.87-.18.06-.35.12-.54.16-.11.03-.22.05-.33.07-.03,0-.33.06-.16.03s-.13.01-.17.02c-.09,0-.18.01-.28.02-.2,0-.41,0-.61,0-.07,0-.15,0-.22-.01-.03,0-.4-.05-.11,0-.18-.03-.37-.06-.55-.1s-.36-.09-.54-.15c-.11-.03-.21-.07-.32-.11-.03,0-.31-.12-.16-.06s-.16-.07-.16-.07c-.08-.04-.17-.08-.25-.12-.17-.09-.33-.18-.49-.28-.17-.11-.34-.22-.51-.35.14.11.02.01-.05-.05s-.14-.12-.21-.18c-.14-.12-.27-.26-.4-.39-.06-.07-.12-.14-.18-.21s-.16-.19-.05-.05c-.25-.33-.46-.68-.64-1.05-.29-.61-1.16-.77-1.71-.45-.62.36-.74,1.1-.45,1.71h0Z"/><path class="cls-1" d="m74.4,172.15c.08.11.13.28.22.38l-.07-.16s.03.09.05.14c.01.05.03.09.04.14.02.07.02.15.04.21-.1-.29-.02-.18-.02-.04,0,.07,0,.15,0,.22v.07c-.02.14-.01.1.01-.12-.06.12-.07.3-.11.42-.07.24.11-.21.03-.06-.03.05-.05.11-.09.16s-.1.12-.12.18l.11-.14s-.06.07-.09.1c-.04.04-.08.08-.12.12-.22.2.21-.13,0,0-.1.06-.28.13-.36.21.01-.02.3-.11.11-.05-.07.02-.13.05-.2.06s-.14.03-.2.05c-.25.06.31-.01.06,0-.13,0-.29-.02-.42,0l.19.03s-.09-.02-.14-.03c-.06-.01-.11-.03-.17-.04-.03-.01-.15-.07-.18-.06l.15.06s-.09-.05-.14-.07c-.07-.04-.13-.08-.2-.12-.19-.12.07.04.07.05,0,0-.16-.15-.17-.16-.04-.04-.07-.08-.11-.11-.09-.11-.07-.08.06.08-.05-.09-.11-.16-.16-.25-.03-.05-.05-.11-.08-.16.18.3.08.2.04.08-.03-.09-.06-.19-.08-.28-.02-.11-.01-.29,0,.1,0-.08-.02-.16-.02-.24,0-.1,0-.2,0-.3,0-.11.07-.29-.02.1.01-.06.02-.12.03-.18.02-.1.05-.19.08-.29.02-.06.04-.11.06-.17.07-.2-.15.31,0,.03.04-.09.09-.17.15-.26.03-.05.07-.1.1-.14-.19.31-.12.15-.05.07.07-.07.13-.14.21-.21.1-.09.21-.1-.07.05.05-.03.1-.07.15-.1s.1-.06.16-.09c.2-.11-.3.1-.08.03.1-.03.19-.06.29-.09.12-.03.28,0-.09,0,.06,0,.12-.01.18-.01.12,0,.24.02.37.01-.34.01-.22-.03-.09,0,.08.02.16.03.24.06.04.01.08.02.12.04.12.04.31.18-.01-.01.11.07.24.12.35.19.04.03.09.06.13.09.18.11-.25-.22-.01,0,.09.08.18.17.26.26s.12.23-.04-.06c.04.07.09.13.13.2.02.03.04.07.06.11.15.28-.07-.22,0-.02.05.14.09.27.11.42.12.65.94,1.07,1.54.87.69-.22,1-.85.87-1.54-.26-1.46-1.58-2.65-3-2.98-.79-.18-1.59-.13-2.34.19-.7.3-1.28.83-1.68,1.47-.76,1.22-.85,2.95-.05,4.18.51.78,1.31,1.4,2.22,1.62s1.83.08,2.65-.34c1.84-.95,2.45-3.5,1.28-5.2-.37-.54-1.11-.83-1.71-.45-.54.35-.84,1.13-.45,1.71h0Z"/><path class="cls-1" d="m33.97,140.82l-1.16-1.71c-.08-.15-.19-.26-.32-.35-.12-.11-.26-.19-.43-.22-.17-.05-.33-.06-.5-.02-.17,0-.32.06-.46.15-.27.17-.5.43-.57.75s-.06.69.13.96l1.16,1.71c.08.15.19.26.32.35.12.11.26.19.43.22.17.05.33.06.5.02.17,0,.32-.06.46-.15.27-.17.5-.43.57-.75s.06-.69-.13-.96h0Z"/><path class="cls-1" d="m35.61,137.42l-.13-.26c-.08-.15-.19-.26-.32-.35-.12-.11-.26-.19-.43-.22-.17-.05-.33-.06-.5-.02-.17,0-.32.06-.46.15l-.25.2c-.15.16-.26.34-.32.55l-.04.33c0,.23.06.44.17.63l.13.26c.08.15.19.26.32.35.12.11.26.19.43.22.17.05.33.06.5.02.17,0,.32-.06.46-.15l.25-.2c.15-.16.26-.34.32-.55l.04-.33c0-.23-.06-.44-.17-.63h0Z"/><path class="cls-1" d="m39.59,134.56c0-.44.01-.87.02-1.31,0-.17-.03-.33-.11-.48-.05-.15-.14-.29-.26-.4-.11-.12-.25-.21-.4-.26-.15-.08-.31-.11-.48-.11l-.33.04c-.21.06-.4.17-.55.32l-.2.25c-.11.19-.17.41-.17.63,0,.44-.01.87-.02,1.31,0,.17.03.33.11.48.05.15.14.29.26.4.11.12.25.21.4.26.15.08.31.11.48.11l.33-.04c.21-.06.4-.17.55-.32l.2-.25c.11-.19.17-.41.17-.63h0Z"/><path class="cls-1" d="m214.4,81.02c-2.3,3.17-4.6,6.35-6.89,9.52-1.15,1.59-2.3,3.17-3.45,4.76-.87,1.21-1.7,2.49-1.23,4.05.4,1.35,1.61,2.2,2.69,2.98.97.7,1.84,1.47,2.64,2.36,1.58,1.78,2.74,3.89,3.75,6.03,2.04,4.32,3.41,8.96,5.84,13.1,2.76,4.68,6.83,7.76,12.29,8.51,4.08.56,8.31.26,12.4.05,4.45-.23,8.88-.65,13.3-1.22,1.57-.2,1.59-2.71,0-2.5-7.23.94-14.6,1.57-21.9,1.45-3.04-.05-6.15-.41-8.8-2.01-1.81-1.09-3.28-2.67-4.44-4.43-4.92-7.41-5.76-17.52-13.29-23.12-.56-.42-1.2-.78-1.67-1.3-.64-.72-.43-1.2.07-1.97,1.1-1.67,2.35-3.26,3.52-4.87,2.44-3.37,4.88-6.75,7.32-10.12.94-1.31-1.22-2.55-2.16-1.26h0Z"/><path class="cls-1" d="m167.73,177.23c2.2-3.1,4.47-6.15,6.84-9.12,1.07-1.35,2.16-2.68,3.26-4s2.19-2.89,3.77-3.55c2.31-.96,4.17,1.96,5.8,3.14,2.24,1.63,4.46,1.12,6.51-.55,1.24-1.01,2.11-1.56,3.79-1.42,1.58.14,2.98.28,4.46-.4,2.34-1.08,3.69-3.62,6.05-4.59,2.85-1.17,5.49,1.59,6.66,3.91.66,1.33.86,2.86,1.68,4.11.64.97,1.55,1.69,2.56,2.24,1.77.95,4.01,1.26,5.61,2.51,2.04,1.59-.62,4.24-.92,6.09-.47,3.01,2.71,4.65,3.88,7.08s1.12,5.8-1.68,7.06c-.86.39-1.96.56-2.86.19-1.19-.49-1.54-1.84-2.09-2.88-1.64-3.11-4.6-2.93-7.61-2.2-3.71.9-7.43,1.8-11.13,2.72-3.37.84-6.72,1.81-9.76,3.53-3.4,1.92-6.45,4.35-10.08,5.86s-7.81,2.68-11.67,2.45c-2.07-.12-2.35-2.35-2.81-4.01-.54-1.94-.96-3.91-1.26-5.9-.62-4.18-.64-8.43-.16-12.63.18-1.6-2.32-1.58-2.5,0-.45,3.93-.44,7.89.05,11.81.25,1.95.59,3.89,1.05,5.81.42,1.72.82,3.62,1.7,5.18,1.79,3.17,6.03,2.26,9.01,1.77,3.76-.62,7.43-1.91,10.77-3.74s6.32-4.33,9.88-5.78,7.73-2.27,11.6-3.21c1.99-.49,3.98-.97,5.98-1.46,1.66-.4,3.6-.99,4.63.76.72,1.22,1.1,2.56,2.24,3.49.93.76,2.11,1.13,3.31,1.12,2.55,0,5.08-1.58,6.08-3.94,1.26-2.96.3-6.41-1.53-8.91-.79-1.08-2.78-2.36-2.58-3.83s1.38-2.63,1.65-4.08c.46-2.42-1.03-4.2-3.12-5.18-1.91-.9-4.67-1.31-6.03-3.08-.98-1.27-1.15-3.15-1.93-4.56s-1.83-2.65-3.11-3.6c-2.44-1.81-5.51-1.94-8-.15-1.15.82-2.09,1.86-3.16,2.77-1.32,1.12-2.49,1.41-4.22,1.23s-3.2-.16-4.64.82c-1.02.69-2.17,2.25-3.54,2.14-1.11-.08-2.04-1.15-2.8-1.86-.93-.86-1.89-1.73-3.08-2.21-3.25-1.3-5.87,1.31-7.8,3.6-2.54,3.01-4.99,6.09-7.35,9.24-1.22,1.62-2.42,3.27-3.59,4.92-.93,1.31,1.23,2.56,2.16,1.26h0Z"/><path class="cls-1" d="m160.95,103.8c2.29-1.65,4.28-3.58,5.96-5.85.83-1.12,1.56-2.3,2.19-3.55.51-1.02.89-2.48,1.75-3.28,1-.93,1.8.08,2.02,1.13.31,1.47-.53,3.02-.84,4.44-.55,2.53.07,5.15,2.02,6.94.9.82,1.94,1.33,3.1,1.65.61.17,1.34.25,1.89.58.9.55.66,1.14.06,1.87-.81.99-1.98,1.69-3.23,1.96-1.49.33-2.94-.21-4.43-.08-2.55.23-3.58,2.31-4.6,4.35-.51,1.02-1.07,1.92-2.15,2.4-1.22.54-2.65.53-3.96.49-2.2-.06-8.02-.84-6.17-4.46.54-1.06,1.61-1.85,2.49-2.62.96-.84,1.86-1.7,2.59-2.76.92-1.33-1.25-2.58-2.16-1.26-1.5,2.16-4.16,3.31-5.27,5.78-1.3,2.89.55,5.83,3.29,6.98,1.59.66,3.34.78,5.05.84,1.54.05,3.15.01,4.62-.51,1.35-.48,2.42-1.31,3.21-2.51.74-1.12,1.07-2.54,1.96-3.55,1.13-1.28,3.1-.42,4.56-.47s3.05-.53,4.31-1.38c2.44-1.64,4.43-5.12,1.22-7.14-1.4-.88-3.19-.75-4.48-1.82s-1.87-2.62-1.62-4.2c.28-1.76,1.18-3.4,1.07-5.23-.08-1.3-.62-2.63-1.61-3.5-1.18-1.03-2.85-1.1-4.13-.21s-1.89,2.54-2.57,3.95c-1.7,3.52-4.25,6.57-7.42,8.86-1.29.93-.05,3.1,1.26,2.16h0Z"/><path class="cls-1" d="m138.53,129.66l7.26-1.62,3.63-.81,1.7-.38c.47-.11,1.35-.48,1.84-.31.93.32.83,1.73.58,2.44-.35.98-1.08,1.81-1.88,2.44-1.62,1.27-3.62,1.96-5.28,3.2-3.18,2.38-4.3,6.48-6.76,9.49s-5.46,5.35-8.9,7.03c-1.86.91-3.83,1.57-5.85,2-2.25.48-4.9.88-7.04-.2l.25,1.96c6.28-7.93,13.54-15.08,21.62-21.18,1.27-.96.02-3.13-1.26-2.16-8.26,6.24-15.7,13.46-22.12,21.57-.46.59-.54,1.57.25,1.96,4.06,2.05,9.41.7,13.41-.92s7.86-4.25,10.8-7.6c1.5-1.71,2.74-3.57,3.82-5.57.59-1.09,1.16-2.23,1.97-3.19s1.87-1.65,2.97-2.27c2.05-1.15,4.15-2.17,5.53-4.16,1.19-1.73,1.65-4.1.4-5.93-1.71-2.51-5.08-1.03-7.43-.5-3.39.76-6.78,1.51-10.17,2.27-1.57.35-.91,2.76.66,2.41h0Z"/><path class="cls-1" d="m130.85,159.89c-1.83-1.19-3.92-.14-5.38,1.12-.74.63-1.59,1.43-1.72,2.44-.16,1.26.86,2.05,1.86,2.57,1.74.91,3.72,1.16,5.65,1.15.91,0,1.82-.05,2.72-.13,1.1-.09,2.1-.39,2.77-1.33,1.13-1.56.48-3.73-.22-5.32-.27-.62-1.18-.76-1.71-.45-.64.37-.72,1.09-.45,1.71-.07-.15.11.27.12.32.06.17.12.35.17.52s.09.36.13.54c.02.09.03.18.05.27-.02-.11-.02-.09,0,.07,0,.17,0,.34,0,.51-.01.15-.01.17,0,.03-.02.08-.03.15-.06.23-.05.14-.05.15,0,.02-.03.07-.07.13-.12.2.12-.2-.13.06.04-.04-.64.36-1.52.28-2.25.31-.88.04-1.76.05-2.64-.02-.8-.06-1.59-.22-2.35-.49-.36-.13-.71-.31-1.03-.51-.02-.01-.28-.2-.29-.19.05.13.07.26.07.39,0-.09.04-.14.09-.13.29-.19.54-.56.81-.8.3-.26.61-.49.95-.69.25-.14.66-.31.79-.33.33-.04.43-.02.73.18.57.37,1.38.11,1.71-.45.36-.61.12-1.34-.45-1.71h0Z"/><path class="cls-1" d="m106.2,173.26c.7-3.33,1.2-6.78,2.17-10.04.39-1.31,1.01-2.62,2.26-3.31,1.01-.56,2.17-.45,2.89.5,1.54,2.04.98,5.52.75,7.85-.18,1.78-.48,3.55-.89,5.29-.1.43-.18,1.65-.56,1.93-.2.14-.7.08-.94.09-.48.03-.95.06-1.43.1-1.85.12-3.7.32-5.55.35-1.13.02-2.65.02-3.27-1.11-.78-1.41-2.94-.15-2.16,1.26,1.82,3.31,6.68,2.27,9.73,2.07,1.07-.07,2.15-.12,3.22-.21.92-.08,1.75-.24,2.36-.99s.76-1.76.98-2.66c.26-1.1.48-2.21.66-3.32.34-2.18.58-4.4.58-6.61,0-1.61-.23-3.26-.95-4.71-1.67-3.38-5.97-3.37-8.29-.66-1.42,1.65-1.91,3.79-2.35,5.87-.53,2.54-1.07,5.09-1.6,7.63-.33,1.57,2.08,2.24,2.41.66h0Z"/><path class="cls-1" d="m130.33,83.86c1.42,4.27-.79,8.67-4.88,10.38-2.26.94-4.68,1.46-6.96,2.37-2.41.96-4.75,2.1-6.97,3.44-1.7,1.03-3.66,2.38-3.81,4.56-.07,1.06.39,1.93.79,2.88.63,1.48.15,2.68-.51,4.07-1.22,2.56-2.47,5.1-3.7,7.65-.6,1.24-1.2,2.48-1.8,3.71-.23.46-.42,1.01-.75,1.42-.38.47-.93.59-1.41.93-.9.64-1.17,1.6-1.09,2.66.07.89.44,1.49-.62,1.54-1.85.08-3.62-.49-5.14.91-1.19,1.09.59,2.86,1.77,1.77.5-.46,1.42-.29,2.03-.25.79.05,1.61.14,2.4-.04.73-.17,1.4-.6,1.79-1.26.21-.35.32-.75.36-1.16.07-.59-.23-1.29-.11-1.85.11-.48.56-.51.97-.77s.71-.57.99-.94c.83-1.08,1.33-2.46,1.92-3.68,1.27-2.62,2.54-5.24,3.81-7.87,1.14-2.35,2.6-4.81,1.55-7.46-.42-1.07-1.16-1.99-.32-3.04.78-.98,2.05-1.6,3.12-2.21,2.4-1.37,4.91-2.51,7.53-3.4,2.35-.8,4.85-1.32,6.99-2.63,4.11-2.53,5.98-7.85,4.47-12.41-.51-1.52-2.92-.87-2.41.66h0Z"/><path class="cls-1" d="m73.5,170.61c-17.94,12.35-35.76,24.9-53.43,37.63-5,3.6-9.99,7.22-14.97,10.86-1.29.94-.04,3.11,1.26,2.16,17.6-12.84,35.33-25.49,53.2-37.95,5.06-3.53,10.13-7.04,15.2-10.53,1.32-.91.07-3.07-1.26-2.16h0Z"/><path class="cls-1" d="m6.26,218.39c-1.37-9.44-2.62-18.89-3.75-28.36l-1.88,1.08c7.36,5.1,14.72,10.19,22.09,15.29,1.33.92,2.58-1.25,1.26-2.16-7.36-5.1-14.72-10.19-22.09-15.29-.73-.51-1.99.16-1.88,1.08,1.16,9.69,2.44,19.37,3.84,29.03.23,1.59,2.64.91,2.41-.66h0Z"/><path class="cls-1" d="m285.73,28.6c1.56,2.66,3.03,5.42,4.71,8.01.37.57.85,1.02,1.53,1.16.77.16,1.48-.17,2.15-.48,1.25-.57,2.44-1.26,3.56-2.05s2.2-1.58,3.07-2.57c1.18-1.33.69-2.7-.09-4.09-1.36-2.42-3.09-4.67-5.1-6.59-.61-.58-1.29-1.05-2.17-.89-.81.15-1.41.71-2.03,1.2-1.41,1.1-2.82,2.2-4.23,3.31-.53.42-.44,1.33,0,1.77.53.53,1.23.42,1.77,0,.94-.73,1.88-1.47,2.82-2.2.47-.37.94-.73,1.41-1.1.18-.14.38-.27.55-.42.03-.03.13-.09.18-.11-.31.11-.21.07.03.3,1.5,1.45,2.82,3.07,3.94,4.84.28.45.55.9.8,1.36.12.22.25.43.35.66.08.18.12.11-.06.26-.79.7-1.53,1.41-2.4,2.03s-1.75,1.16-2.68,1.64c-.39.2-.86.35-1.22.59-.42.28-.1-.05.03.17-.03-.06-.08-.09-.1-.16-.09-.27-.33-.55-.47-.8l-4.19-7.12c-.82-1.39-2.98-.13-2.16,1.26h0Z"/><path class="cls-1" d="m287.2,30.38c-3.53.52-7.03,1.16-10.51,1.91-.75.16-1.2,1.19-.75,1.84,2.25,3.23,4.5,6.46,6.76,9.69.47.68,1.75.94,2.16,0,1.21-2.81,2.43-5.61,3.64-8.42.27-.62.18-1.34-.45-1.71-.53-.31-1.44-.17-1.71.45-1.21,2.81-2.43,5.61-3.64,8.42h2.16c-2.25-3.23-4.5-6.46-6.76-9.69l-.75,1.84c3.48-.75,6.99-1.39,10.51-1.91.67-.1,1.04-.94.87-1.54-.2-.72-.87-.97-1.54-.87h0Z"/><path class="cls-1" d="m270.14,39.15c-.72,1.46-.54,3.14.49,4.4.93,1.15,2.55,1.59,3.96,1.26.64-.15,1.08-.91.87-1.54-.22-.67-.85-1.03-1.54-.87-.09.02-.18.04-.28.05l.33-.04c-.23.03-.45.03-.68,0l.33.04c-.24-.03-.48-.1-.71-.19l.3.13c-.23-.1-.44-.22-.64-.37l.25.2c-.18-.14-.34-.3-.48-.48l.2.25c-.13-.17-.23-.35-.32-.55l.13.3c-.1-.23-.16-.47-.2-.72l.04.33c-.03-.25-.03-.5,0-.75l-.04.33c.03-.23.09-.45.18-.67l-.13.3c.02-.05.05-.11.07-.16.15-.3.22-.63.13-.96-.08-.29-.3-.6-.57-.75-.56-.3-1.4-.18-1.71.45h0Z"/><path class="cls-1" d="m263.48,38.02c-.52,1.69-.93,3.42-1.2,5.17s-.61,3.58-.24,5.31c.34,1.6,1.52,2.75,2.76,3.72,1.41,1.1,2.87,2.11,4.41,3.02,1.38.83,2.64-1.33,1.26-2.16s-2.59-1.63-3.81-2.56c-1-.76-2.09-1.59-2.25-2.92-.17-1.4.14-2.95.38-4.33.27-1.55.65-3.08,1.11-4.58s-1.94-2.2-2.41-.66h0Z"/><path class="cls-1" d="m255.42,38.52c-1.61,4.18-.65,8.9.78,13,1.25,3.58,3.23,7.12,6.73,8.9,1.43.73,2.7-1.43,1.26-2.16-3.01-1.53-4.64-4.61-5.68-7.7-1.23-3.64-2.11-7.67-.68-11.38.58-1.5-1.84-2.15-2.41-.66h0Z"/><path class="cls-1" d="m289.27,23.41l-1.41-3.23c-.12-.27-.48-.5-.75-.57-.3-.08-.7-.05-.96.13s-.5.43-.57.75l-.04.33c0,.23.06.44.17.63l1.41,3.23c.12.27.48.5.75.57.3.08.7.05.96-.13s.5-.43.57-.75l.04-.33c0-.23-.06-.44-.17-.63h0Z"/><path class="cls-1" d="m296.36,36.14c.64.7,1.29,1.4,1.93,2.11.21.23.58.37.88.37s.67-.14.88-.37.38-.55.37-.88-.13-.63-.37-.88c-.64-.7-1.29-1.4-1.93-2.11-.21-.23-.58-.37-.88-.37s-.67.14-.88.37-.38.55-.37.88.13.63.37.88h0Z"/><path class="cls-1" d="m297.91,41.94l2.63-2.08,1.26-1c.23-.18.45-.36.68-.54.05-.04.15-.1.2-.16l.17-.11-.41.06c0,.17.85.76,1.01.9.41.37.82.75,1.22,1.14.77.74,1.53,1.51,2.26,2.29.56.59,1.25,1.26,1.44,2.08.16.69-.15,1.32-.56,1.86-.49.65-1.18,1.32-1.85,1.78-.14.1-.41.13-.23.17-.1-.02-.17-.08-.25-.14-.38-.29-.69-.74-1-1.11-1.51-1.78-2.8-3.73-3.91-5.78-.77-1.41-2.93-.15-2.16,1.26,1.27,2.34,2.79,4.53,4.53,6.55.87,1.01,1.91,1.98,3.37,1.63,1.12-.27,2.13-1.32,2.89-2.14s1.48-1.85,1.67-3.02c.22-1.36-.27-2.6-1.08-3.66s-1.78-2.01-2.73-2.94-1.9-1.87-2.93-2.71c-.65-.53-1.37-.79-2.19-.5-.71.25-1.3.87-1.88,1.33-1.3,1.03-2.59,2.05-3.89,3.08-.53.42-.44,1.33,0,1.77.52.52,1.24.42,1.77,0h0Z"/><path class="cls-1" d="m278.2,13.37c1.29,2.37,2.52,4.78,3.86,7.12.65,1.14,1.71,1.95,3.08,1.58,1.18-.32,2.37-1.09,3.37-1.78s2.29-1.44,2.22-2.77c-.04-.72-.5-1.22-.96-1.73-.36-.41-.64-.89-.91-1.36-1.11-1.98-1.95-4.15-3.92-5.46s-5.07-1.04-6.21,1.22c-.3.6-.16,1.35.45,1.71.56.33,1.4.16,1.71-.45.24-.47.54-.67,1.14-.76.04,0,.14-.01.3-.01s.26,0,.31.02c.4.07.56.14.9.35,1.38.84,2.06,2.54,2.77,3.91.44.85.92,1.66,1.52,2.4.09.11.28.42.42.48h.01c.14.14.16-.03.06-.51-.02,0,.18,0-.04.03-.11.02-.3.25-.39.32-.21.16-.43.31-.65.46-.79.54-1.63,1.06-2.51,1.43-.05.02-.11.05-.16.07-.41.18-.14,0-.06.05.12.08-.04-.06-.05-.07-.14-.35-.44-.75-.63-1.1-1.16-2.14-2.31-4.27-3.47-6.41-.77-1.41-2.93-.15-2.16,1.26h0Z"/><path class="cls-1" d="m207.09,272.24c-3.08,3-7.73,2.48-11.37.9s-7.53-3.95-9.93-7.19c-5.56-7.51-.91-17.49,2.81-24.7,1.04-2.02,2.31-3.57,4.43-4.49,1.94-.84,4.1-1.32,6.18-1.68,4.46-.76,9.1-.61,13.51.39,2.09.48,4.31,1.06,6.2,2.11s2.88,2.73,3.54,4.72c1.36,4.13,2.71,8.99,1.97,13.35-1.66,9.86-12.57,13.67-20.8,16.35-1.52.5-.87,2.91.66,2.41,8.69-2.83,18.78-6.54,22.02-16.04,1.7-4.99.34-10.33-1-15.23-.56-2.07-1.28-4.16-2.71-5.81-1.59-1.83-3.96-2.72-6.21-3.45-4.9-1.58-10.18-2.11-15.3-1.56-4.52.49-10.2,1.42-13.14,5.25-1.52,1.98-2.5,4.4-3.54,6.66-1.11,2.41-2.14,4.88-2.82,7.45-1.2,4.55-1.25,9.6,1,13.85,2.44,4.61,7.41,7.83,12.07,9.85s10.33,2.4,14.2-1.38c1.15-1.12-.61-2.89-1.77-1.77h0Z"/><path class="cls-1" d="m207.71,247.89c-.89.46-1.82-.37-2.38-.99-.64-.71-1.24-1.7-1.09-2.69.17-1.07,1.17-1.3,2.05-1.6,1.22-.41,2.46-.83,3.74-.99,1.07-.13,2.18-.08,3.2.29.39.14.96.37,1.2.72.31.46.31,1.28.39,1.82.09.67.16,1.34.2,2.01.02.35.04.7.05,1.05,0,.17,0,.35.01.52.5-.35.58-.47.27-.35-.28-.02-.74.21-1.01.28-.34.09-.68.19-1.01.28-.68.19-1.35.37-2.03.56-1.55.43-.89,2.84.66,2.41,1.41-.39,2.9-.7,4.27-1.2,1.62-.59,1.38-2.28,1.28-3.69s-.16-3.11-.68-4.46-1.86-2.04-3.14-2.44c-2.73-.86-5.58-.08-8.19.8-1.3.44-2.57.93-3.27,2.2-.61,1.13-.66,2.51-.24,3.7.96,2.72,4,5.41,6.96,3.89,1.43-.73.17-2.89-1.26-2.16h0Z"/><path class="cls-1" d="m194.27,256.4c.17-.03.1.02.03,0,.05.02-.22-.14-.19-.11-.07-.05-.29-.43-.34-.55-.24-.58-.44-1.32-.51-1.9-.15-1.23.2-2.17,1.3-2.68.1-.05.46-.15.7-.21.19-.04.03-.02.22-.03.22-.01.44-.02.66,0,.63.03,1.31.24,1.91.49s1.27.6,1.74.98c.23.19.45.48.63.64-.04-.04.06.1.06.1l-.04-.2c0-.22-.03-.26-.07-.12-.06.04-.02.04-.05.1-.04.08-.09.16-.14.24-.14.22-.36.46-.63.7-.2.17-.45.33-.76.49-.73.39-1.53.6-2.33.8-.65.17-1.05.89-.87,1.54s.88,1.04,1.54.87c1.99-.51,4-1.29,5.17-3.09.29-.45.56-1.02.58-1.56.02-.7-.35-1.25-.79-1.76-.64-.73-1.49-1.28-2.35-1.7-1.96-.96-4.19-1.44-6.26-.53-1.95.86-2.94,2.86-2.73,4.94.23,2.26,1.31,5.5,4.17,4.97.66-.12,1.04-.93.87-1.54-.19-.7-.87-1-1.54-.87h0Z"/><path class="cls-1" d="m81.06,47.67c-5.31-6-10.37-12.22-15.16-18.64-.95-1.28-3.12-.03-2.16,1.26,4.92,6.59,10.1,12.99,15.55,19.15,1.07,1.21,2.83-.57,1.77-1.77h0Z"/><path class="cls-1" d="m79.56,47.26l-3.65,3.22-1.82,1.61c-.35.31-1.18,1.37-1.7,1.33-.48-.04-1.13-1.19-1.41-1.53-.51-.63-1.02-1.26-1.54-1.9-1.07-1.33-2.15-2.65-3.22-3.98-2.05-2.53-4.09-5.05-6.14-7.58-.49-.6-1.13-1.2-1.5-1.88-.45-.81.2-1.31.71-1.94,1.03-1.26,2.05-2.51,3.08-3.77s-.75-3.01-1.77-1.77c-1.26,1.54-2.56,3.05-3.77,4.62-1.05,1.36-1.34,2.78-.32,4.25,1.14,1.65,2.54,3.16,3.8,4.71,1.38,1.71,2.76,3.41,4.15,5.12s2.66,3.28,3.99,4.93c.97,1.2,2.06,3.09,3.8,3.21s3-1.51,4.16-2.54c1.64-1.45,3.28-2.9,4.93-4.34,1.21-1.07-.56-2.83-1.77-1.77h0Z"/><path class="cls-1" d="m70.12,56.87c-2.45,5.93-5.85,11.46-9.98,16.37h1.77c-6.64-5.9-12.56-12.59-17.55-19.94-.2-.3-.8-.89-.83-1.25-.05-.58.71-1.31,1.02-1.74.69-.94,1.37-1.88,2.06-2.82,1.47-2.01,2.94-4.02,4.42-6.04,2.94-4.02,5.89-8.05,8.83-12.07.95-1.3-1.22-2.55-2.16-1.26-4.91,6.71-9.81,13.41-14.72,20.12-.97,1.33-2.45,2.79-1.83,4.57.57,1.65,2.08,3.27,3.11,4.67,2.16,2.97,4.47,5.84,6.91,8.58,2.81,3.15,5.81,6.13,8.97,8.94.47.42,1.31.54,1.77,0,4.43-5.26,7.99-11.12,10.62-17.47.61-1.49-1.8-2.13-2.41-.66h0Z"/><path class="cls-1" d="m82.91,48.3c5.94-2.87,11.96-5.57,18.07-8.09.77-.32,1.14-1.05.75-1.84-2.07-4.16-4.47-8.16-7.21-11.92-1.25-1.72-2.57-3.4-3.95-5.02-.75-.88-1.51-1.74-2.3-2.59-.66-.71-1.33-1.61-2.21-2.07-1.93-1-4.12.99-5.71,1.87-2,1.12-4.06,2.14-6.16,3.07-4.45,1.97-9.11,3.44-13.87,4.46-1.57.34-.91,2.75.66,2.41,4.27-.91,8.45-2.2,12.49-3.87,2.07-.86,4.11-1.79,6.11-2.82.95-.49,1.9-1.01,2.83-1.54.64-.37,1.95-1.5,2.66-1.23.34.13.73.75.98,1.02.35.37.69.74,1.03,1.11.68.75,1.34,1.51,1.99,2.28,1.42,1.69,2.76,3.44,4.03,5.24,2.43,3.45,4.57,7.09,6.45,10.86l.75-1.84c-6.3,2.59-12.53,5.37-18.67,8.34-1.45.7-.18,2.86,1.26,2.16h0Z"/><path class="cls-1" d="m76.3,53.25c5.29,1.84,11.16,1.74,16.48.07,1.36-.43,2.69-.96,3.98-1.57,1.06-.51,2.56-1.07,3.2-2.13.73-1.21.1-2.67-.46-3.82-.6-1.25-1.49-2.36-2.54-3.26-1.21-1.04-2.99.72-1.77,1.77.82.7,1.49,1.49,1.99,2.44.18.34.64,1.07.56,1.49-.07.36-.87.66-1.23.85-2.07,1.09-4.27,1.9-6.55,2.41-4.31.98-8.81.8-13-.65-1.52-.53-2.18,1.89-.66,2.41h0Z"/><path class="cls-1" d="m74.63,55.41c2.18,7.2.59,15.05-3.45,21.3l1.96-.25c-2.02-2.55-4.64-4.41-7.64-5.62-1.49-.6-2.14,1.81-.66,2.41,2.6,1.05,4.8,2.79,6.54,4.98.53.67,1.57.35,1.96-.25,4.39-6.78,6.06-15.42,3.7-23.23-.47-1.54-2.88-.88-2.41.66h0Z"/><path class="cls-1" d="m76.5,54.97c2.32,3.68,4.17,7.93,4.79,12.27.26,1.81.25,3.83-.6,5.5-.21.42-.46.85-.79,1.19-.46.49-.69.27-1.21-.06-1.06-.68-2.1-1.37-3.15-2.05-1.35-.88-2.61,1.28-1.26,2.16,2.01,1.31,4.88,4.15,7.18,1.95,1.81-1.72,2.48-4.38,2.47-6.8-.01-2.6-.71-5.19-1.55-7.63-.94-2.73-2.19-5.34-3.72-7.78-.85-1.36-3.02-.11-2.16,1.26h0Z"/><path class="cls-1" d="m79.7,55.51c.77,2.18,2.31,4.02,4.41,5.04,2.33,1.13,4.96,1.19,7.44.58,2.31-.57,4.99-1.7,6.25-3.85,1.12-1.92.69-4.76-1.63-5.49-1.54-.48-2.2,1.93-.66,2.41.4.13.44.72.4,1.08-.09.72-.63,1.32-1.18,1.75-1.34,1.07-3.23,1.66-4.9,1.9-3.18.46-6.58-.89-7.71-4.09-.53-1.51-2.95-.86-2.41.66h0Z"/><path class="cls-1" d="m292.5,243.17c1.53-7.97,3.4-15.88,5.59-23.7.43-1.55-1.98-2.21-2.41-.66-2.19,7.82-4.06,15.72-5.59,23.7-.3,1.57,2.11,2.25,2.41.66h0Z"/><path class="cls-1" d="m292.11,241.59c-1.59-.31-3.18-.62-4.78-.92l-2.63-.51c-.46-.09-1.65-.09-1.94-.48s.09-1.32.19-1.7c.19-.81.38-1.62.58-2.43.4-1.7.81-3.4,1.21-5.11.77-3.24,1.54-6.48,2.31-9.72.17-.73.24-1.62.55-2.3.39-.87,1.29-.65,2.14-.63,1.62.05,3.24.09,4.86.14s1.61-2.45,0-2.5c-1.98-.06-3.98-.21-5.96-.16-1.74.04-2.93.8-3.45,2.49-.62,2.01-.99,4.14-1.47,6.19s-1,4.21-1.5,6.32-1,4.21-1.5,6.32c-.34,1.42-.98,3.16-.07,4.51s3.12,1.42,4.6,1.71c2.07.4,4.14.8,6.21,1.2,1.57.3,2.25-2.11.66-2.41h0Z"/><path class="cls-1" d="m278.7,239.9c-6.32,1.71-12.82,2.41-19.36,2.13l1.25,1.25c.32-4.63.94-9.23,1.86-13.78.44-2.18.95-4.34,1.53-6.49s1.09-4.56,2-6.62c.26-.59.38-.62,1-.66.66-.04,1.33-.03,1.99-.05,1.16-.03,2.33-.06,3.49-.09,2.33-.06,4.65-.12,6.98-.18,4.82-.12,9.64-.24,14.45-.36,1.61-.04,1.61-2.54,0-2.5-5.32.13-10.63.27-15.95.4-2.66.07-5.32.13-7.97.2-1.76.04-4.6-.44-5.8,1.23-.6.83-.82,1.97-1.13,2.93-.39,1.21-.76,2.43-1.1,3.66-.69,2.44-1.29,4.91-1.81,7.4-1.02,4.92-1.69,9.9-2.05,14.91-.05.69.61,1.22,1.25,1.25,6.75.28,13.5-.46,20.02-2.22,1.55-.42.89-2.83-.66-2.41h0Z"/><path class="cls-1" d="m292.99,244.77c6,3,11.91,6.18,17.72,9.53.55.32,1.41.16,1.71-.45,2.12-4.37,3.9-8.91,5.25-13.58.68-2.34,1.24-4.71,1.7-7.1.23-1.19.44-2.39.61-3.59.12-.83.17-1.64-.3-2.38-.97-1.53-3.56-2-5.12-2.68-2.12-.94-4.19-1.97-6.22-3.1-4.02-2.24-7.82-4.86-11.33-7.84-1.22-1.03-3,.73-1.77,1.77,6.4,5.43,13.6,9.59,21.38,12.71.29.12.8.22.96.53.17.33-.16,1.33-.22,1.68-.17,1.05-.36,2.1-.58,3.14-.44,2.16-.97,4.31-1.59,6.43-1.28,4.39-2.94,8.65-4.93,12.76l1.71-.45c-5.81-3.35-11.72-6.53-17.72-9.53-1.43-.72-2.7,1.44-1.26,2.16h0Z"/><path class="cls-1" d="m285.15,242.5c1.72,5.19,5.15,9.59,9.52,12.84,1.11.83,2.28,1.57,3.51,2.22,1.14.61,2.58,1.5,3.89,1.59,1.53.11,2.42-1.17,3.06-2.38.74-1.39,1.12-2.9,1.2-4.47s-2.42-1.6-2.5,0c-.06,1.23-.4,2.41-1.01,3.48-.12.21-.32.64-.51.79-.2.16.21.15-.28.03-.53-.14-1.07-.44-1.56-.68-2.01-.97-3.91-2.17-5.62-3.61-3.3-2.79-5.92-6.36-7.29-10.48-.5-1.52-2.92-.87-2.41.66h0Z"/><path class="cls-1" d="m282.39,242.75c-4.27,5.99-11.49,9.55-18.73,10.15l1.21,1.58c.79-3.15.74-6.39-.13-9.52-.43-1.55-2.84-.89-2.41.66.75,2.7.81,5.46.13,8.19-.18.73.37,1.65,1.21,1.58,8.2-.67,16.07-4.62,20.89-11.38.93-1.31-1.23-2.56-2.16-1.26h0Z"/><path class="cls-1" d="m283.92,243.98c-1.5,4.1-3.81,8.22-6.92,11.32-1.35,1.35-3.06,2.58-5.01,2.8-.36.04-1.06.13-1.39-.04-.18-.09-.21-.35-.24-.73-.11-1.27-.2-2.53-.31-3.8-.13-1.59-2.63-1.61-2.5,0,.12,1.45.19,2.92.36,4.37s.95,2.41,2.38,2.64c2.6.43,5.15-.72,7.15-2.3s3.69-3.82,5.12-6.01c1.55-2.38,2.8-4.93,3.77-7.59.55-1.51-1.86-2.17-2.41-.66h0Z"/><path class="cls-1" d="m285.41,246.83c-1.33,2.04-1.7,4.58-1.11,6.93.56,2.23,2.01,4.17,3.78,5.6s4.23,2.95,6.68,2.79c2.17-.14,4.67-2.12,3.77-4.53-.24-.63-.85-1.06-1.54-.87-.61.17-1.11.9-.87,1.54.17.46-.05.77-.48,1.06-.62.42-1.44.36-2.14.19-1.66-.41-3.24-1.48-4.46-2.65-2.43-2.33-3.4-5.84-1.47-8.8.88-1.35-1.28-2.61-2.16-1.26h0Z"/><path class="cls-1" d="m311.51,69.34c-12.11,7.68-24.22,15.36-36.33,23.04-.63.4-.9,1.42-.25,1.96,7.55,6.34,15.11,12.68,22.66,19.03,1.47,1.23,3.09,3.07,5.16,3.12s4.18-1.52,5.96-2.45c4.29-2.26,8.59-4.51,12.88-6.77,4.95-2.6,9.9-5.2,14.85-7.8.6-.31.78-1.15.45-1.71-7.99-13.49-18.05-25.71-29.78-36.11-1.2-1.06-2.97.7-1.77,1.77,11.58,10.27,21.51,22.28,29.39,35.6l.45-1.71c-8.08,4.24-16.16,8.49-24.24,12.73-2.04,1.07-4.07,2.14-6.11,3.21-.97.51-1.86,1.03-2.9.42-.93-.54-1.74-1.38-2.56-2.07-3.55-2.98-7.11-5.97-10.66-8.95-4-3.36-8-6.72-12-10.07l-.25,1.96c12.11-7.68,24.22-15.36,36.33-23.04,1.35-.86.1-3.02-1.26-2.16h0Z"/><path class="cls-1" d="m310.68,77.33c-1.51,1.14-3.05,2.49-3.69,4.33s.12,3.7,1.63,4.9c1.79,1.42,3.77,2.65,5.65,3.96,2.08,1.44,4.15,2.88,6.23,4.32.67.47,1.64-.02,1.84-.75.5-1.82,1.11-3.6,1.86-5.32.23-.53.22-1.07-.2-1.51-4.51-4.83-9.47-9.21-14.8-13.12-1.3-.95-2.55,1.22-1.26,2.16,5.15,3.78,9.93,8.05,14.29,12.73l-.2-1.51c-.84,1.93-1.56,3.89-2.11,5.92l1.84-.75c-3.24-2.25-6.48-4.5-9.72-6.75-1.01-.7-3.01-1.62-2.78-3.12.21-1.37,1.64-2.55,2.68-3.33.54-.41.81-1.07.45-1.71-.3-.53-1.17-.85-1.71-.45h0Z"/><path class="cls-1" d="m298.01,92.27c2.95,2.73,5.75,5.62,8.41,8.63.45.51,1.31.46,1.77,0,.5-.5.45-1.26,0-1.77-2.66-3.02-5.46-5.9-8.41-8.63-.49-.46-1.28-.49-1.77,0s-.5,1.31,0,1.77h0Z"/><path class="cls-1" d="m273.32,94.01c.51,1.85.68,3.74.43,5.65-.22,1.72-.51,3.2.68,4.64s2.69,2.5,4.04,3.65,2.81,2.36,4.24,3.5c5.81,4.65,11.88,8.97,18.19,12.93.52.33,1.45.16,1.71-.45,1.29-2.96,1.82-6.09,1.42-9.3-.2-1.58-2.7-1.6-2.5,0,.34,2.74.03,5.49-1.08,8.04l1.71-.45c-5.99-3.76-11.79-7.84-17.32-12.25-2.71-2.16-5.51-4.34-8-6.76-.79-.77-.91-1.26-.75-2.39.11-.77.23-1.54.27-2.33.07-1.74-.16-3.48-.62-5.16-.42-1.55-2.84-.89-2.41.66h0Z"/><path class="cls-1" d="m334.18,97.69c-.71,1.17-.56,2.41-.22,3.68.44,1.61.68,2.58-.89,3.58-3.33,2.12-6.93,3.91-10.38,5.84-7.01,3.94-14.02,7.87-21.03,11.81-1.4.79-.14,2.95,1.26,2.16,7.3-4.1,14.6-8.2,21.89-12.29,1.81-1.01,3.61-2.03,5.42-3.04,1.6-.9,3.35-1.7,4.82-2.82,1.16-.88,1.89-2.09,1.81-3.59-.06-1.17-1.17-3-.53-4.06.83-1.38-1.33-2.64-2.16-1.26h0Z"/><path class="cls-1" d="m313.95,68.64c-1.9-.99-3.78-2.12-5.76-2.94-1.62-.68-3.15-.45-4.61.5-1.72,1.12-3.28,2.57-4.88,3.85-1.74,1.39-3.47,2.78-5.21,4.17-6.94,5.56-13.88,11.11-20.82,16.67-.42.33-.46,1.08-.2,1.51.22.35.44.71.66,1.06.85,1.36,3.01.11,2.16-1.26-.22-.35-.44-.71-.66-1.06l-.2,1.51c6.3-5.04,12.6-10.08,18.89-15.12,3.08-2.47,6.17-4.94,9.25-7.41,1.27-1.01,2.8-2.81,4.58-2.16,1.89.69,3.73,1.91,5.52,2.84,1.43.74,2.69-1.42,1.26-2.16h0Z"/><path class="cls-1" d="m270.91,91.13c.32,1.31.39,2.69.11,4.02s-.95,2.61-1.23,3.97c-.26,1.28-.2,2.59.51,3.72.67,1.07,1.83,1.89,3.14,1.75.67-.07,1.25-.52,1.25-1.25,0-.62-.57-1.32-1.25-1.25s-1.08-.46-1.25-1.15c-.25-.98.27-2.11.6-3.01.89-2.44,1.16-4.91.54-7.46-.39-1.56-2.8-.9-2.41.66h0Z"/><path class="cls-1" d="m27.85,111.49c-1.64,3.59-4.8,6.51-8.65,7.55-.7.19-1.9.38-1.93-.62-.04-1.24.24-2.57.4-3.8s.36-2.5.58-3.74c.11-.61.22-1.22.34-1.83.1-.5.11-1.22.42-1.63l-.45.45-.18.05-.63-.17c.38.18.7.61,1.02.88.36.31.74.61,1.13.9.78.58,1.6,1.1,2.46,1.55,1.76.91,3.64,1.56,5.59,1.9.66.11,1.35-.18,1.54-.87.16-.6-.2-1.42-.87-1.54-2.81-.48-5.51-1.61-7.73-3.42-.55-.45-1.04-1.04-1.64-1.43-.81-.52-1.84-.37-2.4.44-.4.58-.48,1.29-.62,1.97-.18.87-.34,1.74-.49,2.62-.3,1.73-.54,3.46-.74,5.2-.18,1.58-.64,3.47.62,4.74,2.21,2.21,6.08.35,8.26-1.02,2.64-1.66,4.82-4.07,6.12-6.91.28-.61.17-1.35-.45-1.71-.54-.31-1.43-.17-1.71.45h0Z"/><path class="cls-1" d="m31.36,111.69c2.67-2.32,4.98-5.06,6.79-8.1.91-1.52,1.67-3.11,2.33-4.76.31-.77.56-1.53.23-2.34-.35-.87-1.18-1.34-1.91-1.87-1.68-1.2-3.35-2.42-5.05-3.61-1.48-1.03-3.12-2.08-4.92-2.44-1.98-.39-2.93,1.02-4.01,2.42s-2.22,2.92-3.21,4.46c-2.19,3.41-3.81,7.23-3.77,11.34.01,1.61,2.51,1.61,2.5,0-.02-2.94.93-5.7,2.34-8.25.72-1.3,1.54-2.54,2.4-3.74s1.66-2.56,2.7-3.53c.85-.8,3.01.77,3.81,1.3,1.41.92,2.76,1.94,4.13,2.92.66.47,1.33.95,1.99,1.42.3.21.6.32.61.64s-.32.84-.44,1.12c-.56,1.32-1.22,2.59-1.96,3.81-1.7,2.81-3.83,5.3-6.31,7.45-1.22,1.06.56,2.82,1.77,1.77h0Z"/><path class="cls-1" d="m23.3,95.43c-2.12-3.02-3.22-6.59-3.14-10.29l-1.58,1.21c2.73,1,5.24,2.55,7.37,4.53,1.18,1.09,2.95-.67,1.77-1.77-2.46-2.28-5.32-4.02-8.47-5.17-.79-.29-1.57.45-1.58,1.21-.09,4.09,1.13,8.19,3.48,11.55.39.55,1.09.81,1.71.45.55-.32.84-1.15.45-1.71h0Z"/><path class="cls-1" d="m38.27,106.22c1.53-.05,3.07-.1,4.6-.16,1.34-.05,2.71-.02,3.95-.58.58-.26,1.13-.72,1.44-1.29.53-.95-.09-1.73-.73-2.39-.93-.97-1.96-1.84-3.06-2.63-1.21-.87-2.52-1.59-3.89-2.17-.62-.26-1.34-.19-1.71.45-.31.52-.18,1.45.45,1.71,1.35.57,2.63,1.28,3.83,2.13.55.39,1.02.77,1.55,1.24.26.23.51.47.76.72.14.14.28.28.41.43.07.07.14.14.2.22.21.25.17.12-.12-.38l.17-.63c-.06.12-.06.13.02.04-.05.06-.11.12-.17.18-.11.1-.12.11-.03.03-.05.03-.1.06-.16.09-.05.03-.11.06-.16.08.11-.05.09-.04-.05,0-.16.04-.32.09-.49.13,0,0-.4.06-.18.03-.17.02-.34.03-.52.04-.36.02-.72.03-1.08.04-1.68.06-3.36.11-5.03.17-.67.02-1.25.56-1.25,1.25s.57,1.27,1.25,1.25h0Z"/><path class="cls-1" d="m38.01,96.12c2.44-2.09,5.16-3.81,8.08-5.15.58-.27.8-1.19.45-1.71-1.64-2.37-4.18-3.96-6.7-5.28-2.65-1.39-5.49-2.42-8.42-3.06-.85-.19-1.5.37-1.58,1.21-.22,2.31-.36,4.62-.41,6.94-.04,1.61,2.46,1.61,2.5,0,.06-2.32.19-4.63.41-6.94l-1.58,1.21c2.63.58,5.19,1.46,7.59,2.69,2.17,1.11,4.61,2.45,6.03,4.5l.45-1.71c-3.11,1.44-5.98,3.31-8.58,5.54-1.22,1.05.55,2.81,1.77,1.77h0Z"/><path class="cls-1" d="m40.86,91.97c-.28-1.56-1.6-2.65-2.87-3.44-1.42-.88-2.9-1.65-4.42-2.34-.59-.27-1.37-.19-1.71.45-.29.55-.19,1.42.45,1.71,1.42.65,2.8,1.37,4.14,2.17.27.16.53.32.79.5.06.04.11.08.17.12.26.19-.11-.1.03.02.11.1.23.19.34.3.12.11.23.23.34.36.09.11.03.06-.02-.02.04.07.09.13.13.2.03.05.06.11.09.17.07.13.05.16,0,0,.05.16.09.31.12.47.12.65.94,1.07,1.54.87.69-.22,1-.85.87-1.54h0Z"/><path class="cls-1" d="m44.12,89.75c-2.6-2.29-5.63-4.02-8.93-5.09-.62-.2-1.39.23-1.54.87-.16.68.21,1.32.87,1.54,2.84.92,5.59,2.47,7.83,4.44.51.45,1.27.5,1.77,0,.45-.45.51-1.32,0-1.77h0Z"/><path class="cls-1" d="m28.47,100.97l.92-.43c.15-.08.26-.19.35-.32.11-.12.19-.26.22-.43.05-.17.06-.33.02-.5,0-.17-.06-.32-.15-.46l-.2-.25c-.16-.15-.34-.26-.55-.32l-.33-.04c-.23,0-.44.06-.63.17l-.92.43c-.15.08-.26.19-.35.32-.11.12-.19.26-.22.43-.05.17-.06.33-.02.5,0,.17.06.32.15.46l.2.25c.16.15.34.26.55.32l.33.04c.23,0,.44-.06.63-.17h0Z"/><path class="cls-1" d="m26.8,102.48s0-.08,0-.13l-.04.33c.01-.09.04-.18.07-.26l-.13.3c.03-.08.08-.15.13-.22l-.2.25s0-.01.01-.02c.12-.11.21-.25.26-.4.08-.15.11-.31.11-.48,0-.17-.03-.33-.11-.48-.05-.15-.14-.29-.26-.4l-.25-.2c-.19-.11-.41-.17-.63-.17l-.33.04c-.21.06-.4.17-.55.32-.08.1-.17.21-.24.32-.02.02-.03.05-.04.07-.01.03-.03.05-.04.08-.06.12-.11.25-.16.37-.02.05-.03.11-.05.17,0,.01,0,.03,0,.04-.02.12-.04.24-.05.36,0,.03,0,.06,0,.09,0,.17.03.33.11.48.05.15.14.29.26.4.11.12.25.21.4.26.15.08.31.11.48.11l.33-.04c.21-.06.4-.17.55-.32l.2-.25c.11-.19.17-.41.17-.63h0Z"/><path class="cls-1" d="m30.9,104.83c-1.95.23-4.46.58-6.05-.88-1.29-1.19-.98-3.1.19-4.31,1.27-1.31,3.49-2.01,5.3-1.78,1.68.21,2.65,1.73,2.47,3.27-.1.84-.81,1.89-1.47,2.6-.71.76-1.53,1.32-2.56,1.54-.66.14-1.04.91-.87,1.54.19.68.88,1.02,1.54.87,1.34-.29,2.53-1.05,3.49-2.01s1.85-2.23,2.21-3.56c.68-2.51-.65-5.36-3.07-6.35-2.59-1.06-6.03-.14-8.16,1.54s-3.13,4.69-1.81,7.16c1.71,3.17,5.69,3.23,8.79,2.87.67-.08,1.25-.52,1.25-1.25,0-.61-.58-1.33-1.25-1.25h0Z"/><path class="cls-1" d="m71.62,156.42c1.37.67,2.82,1.03,4.32,1.29,1.58.27,3.16.51,4.75.73.67.09,1.34-.16,1.54-.87.16-.58-.2-1.45-.87-1.54-1.54-.21-3.07-.44-4.6-.7-1.32-.23-2.7-.49-3.88-1.07-.61-.3-1.35-.16-1.71.45-.32.55-.16,1.41.45,1.71h0Z"/><path class="cls-1" d="m86.3,156.39c.61.6,1.2,1.22,1.74,1.89.21.26.43.52.6.81.38.62.06.12.06.13,0-.01,0-.1,0-.1-.05-.06-.05.11-.01.03.06-.13-.15.18-.01.01-.18.21-.28.27-.6.43-.34.17-.7.29-1.07.39-.75.22-1.51.33-2.29.33-.11,0-.22,0-.33,0-.16-.01-.07,0-.04,0-.13,0-.19-.06-.12-.02.06.03.08.13-.06-.08-.09-.14-.38-.59-.53-.84-.38-.66-.72-1.34-.98-2.05s-.49-1.5-.64-2.27c-.07-.35-.13-.7-.16-1.04,0-.06-.05-.55-.04-.55.05,0-.56.66-.13.22l-.21.13.13-.04c-.16-.01.05,0,.08,0,.11,0,.23,0,.34,0,.07,0,.14,0,.2.02-.17-.02.11.03.14.04.43.1.57.15.91.34.61.34,1.03.76,1.36,1.37s1.14.78,1.71.45.78-1.12.45-1.71c-1-1.81-3.04-3.07-5.13-3.01-1.41.04-2.45.95-2.36,2.42.07,1.1.28,2.22.59,3.28s.76,2.16,1.29,3.16,1.17,2.24,2.34,2.55,2.46.1,3.56-.14,2.2-.64,3.07-1.35c1.08-.89,1.33-2.32.56-3.51-.73-1.12-1.7-2.14-2.65-3.07-1.15-1.12-2.92.64-1.77,1.77h0Z"/><path class="cls-1" d="m68.45,133.26c-.17-.11.02.03.06.06.08.09-.05-.12.05.07.01.03.14.3.09.16s.05.19.05.19c.03.09.03.16.01.02.01.1.01.2.01.3s0,.2-.02.3c.03-.19-.02.01-.04.09-.1.39-.29.72-.54,1.11-.14.21-.28.41-.43.62-.06.08-.12.16-.18.24.05-.06.05-.06,0,0-.06.07-.05.05.04-.04l.63-.17c.18-.02.35.2.13,0-.11-.11-.23-.22-.35-.33-.23-.22-.45-.44-.68-.67-.44-.46-.87-.93-1.28-1.41-.38-.45-.74-.9-1.08-1.37-.18-.24-.36-.49-.51-.74s-.21-.35-.23-.54c-.03-.26.05-.51.14-.79.05-.16.11-.31.17-.47s.08-.23.09-.22c.08-.13.02-.09-.17.13-.26.05-.31.08-.16.07.13.03.29,0,.43,0,.32.02.34.02.66.08,1.08.22,1.99.67,2.76,1.39.49.46,1.28.49,1.77,0s.5-1.31,0-1.77c-1.41-1.31-3.2-2.08-5.12-2.2-.52-.03-1.07-.02-1.54.24-.56.31-.82.81-1.05,1.39-.4.99-.68,2.11-.3,3.15.35.95,1.05,1.77,1.67,2.56.57.73,1.18,1.43,1.82,2.11.31.33.63.64.96.96.45.43.92.89,1.57.95,1.2.12,1.88-1.04,2.45-1.93,1.15-1.81,1.32-4.32-.62-5.66-.56-.38-1.39-.1-1.71.45-.36.62-.11,1.33.45,1.71h0Z"/><path class="cls-1" d="m69.31,148.88c1.41-.66,2.8-1.36,3.99-2.37,1.29-1.1,2.38-2.69,2.04-4.45-.59-3.07-2.85-5.84-5.38-7.55-.56-.38-1.38-.11-1.71.45-.36.61-.11,1.33.45,1.71,1.96,1.32,3.49,3.36,4.14,5.64.17.6,0,.97-.37,1.46-.31.42-.7.8-1.12,1.11-.99.77-2.17,1.3-3.3,1.83-.61.29-.77,1.17-.45,1.71.37.63,1.1.74,1.71.45h0Z"/><path class="cls-1" d="m124.87,263.2c-4.7,6.3-9.82,13.15-17.42,16.07-.83.32-1.68.59-2.54.8-.47.11-.94.21-1.41.29-.51.08-.85.23-1.12-.2-.38-.59.08-2.28.24-2.92.28-1.11.71-2.17,1.24-3.19,1.65-3.19,4.03-5.9,6.69-8.28,3.1-2.78,6.58-5.1,10.04-7.39.7-.47.92-1.75,0-2.16-3.81-1.7-7.43-3.83-10.71-6.41-.68-.54-1.44-.45-1.96.25-2.58,3.48-5.2,6.94-8.21,10.06-1.53,1.59-3.16,3.1-4.94,4.42-1.42,1.06-3.4,2.5-5.28,1.87-2.49-.83-1.2-3.08-.24-4.66,1.02-1.67,2.17-3.26,3.46-4.74,2.59-3,5.64-5.58,9.04-7.61,1.61-.96,3.59-1.58,3.98-3.65.18-.98.11-1.97.34-2.95.27-1.16.72-2.26,1.27-3.32,1.75-3.38,4.16-7.09,7.27-9.36,3.62-2.64,7.96-2.23,11.92-.59,3.66,1.52,7.85,3.89,9.97,7.37,1.25,2.06,1.67,4.4.82,6.7s-2.43,4.52-3.69,6.68-2.6,4.52-3.95,6.75c-1.21,2.01-2.56,3.97-4.51,5.34-1.31.92-.06,3.09,1.26,2.16,4.09-2.87,6.28-7.72,8.73-11.91s6.02-8.58,4.87-13.64c-1.07-4.68-5.12-7.77-9.07-10.01s-8.94-4.13-13.65-2.89c-4.41,1.17-7.45,4.84-9.89,8.46-1.39,2.06-2.7,4.2-3.47,6.57-.37,1.14-.55,2.29-.63,3.48-.05.76-.1,1.06-.75,1.49-.54.36-1.17.62-1.73.95-3.94,2.29-7.49,5.3-10.4,8.81-1.47,1.77-2.82,3.66-3.94,5.67-1.02,1.83-1.57,3.96-.1,5.72,3.78,4.5,9.66-.3,12.74-3.08,4.19-3.78,7.59-8.32,10.94-12.83l-1.96.25c3.46,2.72,7.19,5.01,11.22,6.8v-2.16c-7.05,4.68-14.78,9.85-18.26,17.91-.87,2.02-1.57,4.47-1.09,6.68s2.56,2.24,4.4,1.92c4.43-.78,8.46-3.08,11.89-5.93,4.22-3.51,7.51-7.97,10.78-12.34.96-1.29-1.21-2.54-2.16-1.26h0Z"/><path class="cls-1" d="m130.67,242.87c.43-1.93-.44-4.11-2.26-5.01s-4.11-.47-5.39,1.08l1.96.25c-.08-.13-.09-.13-.04,0,0,.16,0,.16,0,0-.03.14-.03.14,0-.01.02-.08.04-.16.07-.24.11-.34.26-.66.37-1,.29-.94.16-1.9-.49-2.66-.59-.7-1.48-1.05-2.37-1.15s-1.8.18-2.68.05c-.67-.1-1.34.17-1.54.87-.16.59.2,1.44.87,1.54.99.14,1.91-.02,2.9,0-.02,0,.44.05.25.01.06.01.46.14.34.09.12.05.23.13.34.2-.09-.06-.07-.04.04.06-.07-.09-.06-.07.02.05-.1-.16,0-.17-.03.04,0,.09,0,.08,0-.02-.02.09-.04.17-.07.25-.09.3-.22.58-.33.87-.26.74-.32,1.62.18,2.29.44.58,1.4.94,1.96.25.37-.45.65-.63,1.17-.77.39-.1.89-.07,1.19.07.47.22.74.5.97,1-.07-.16.08.23.08.22.04.13.08.27.1.4-.03-.18,0,.18,0,.22,0,.09,0,.18-.01.28.01-.1,0-.08-.03.08-.15.66.2,1.35.87,1.54.63.17,1.39-.21,1.54-.87h0Z"/><path class="cls-1" d="m129.34,239.34c.76-.97,1.54-1.97,1.86-3.18s.15-2.61-.67-3.65c-.72-.91-1.9-1.36-2.96-1.76-1.18-.44-2.55-.55-3.64.19s-1.85,2.02-1.7,3.35c.08.65.52,1.28,1.25,1.25.61-.03,1.33-.55,1.25-1.25-.01-.12-.01-.25-.02-.37.01-.14,0-.12-.02.06.01-.06.02-.12.04-.18.02-.08.04-.2.08-.26-.07.16-.07.17-.01.05.03-.05.06-.11.09-.16.07-.12.16-.19.02-.05.09-.09.17-.18.26-.27.11-.09.09-.08-.03.02.05-.04.1-.07.16-.1.07-.04.27-.21.03-.03.04-.03.31-.13.35-.1-.19.02-.2.02-.02,0h.12c.08,0,.16,0,.25,0-.13-.02-.12-.02.03,0,.16.04.32.08.48.13.28.09.55.2.82.31s-.15-.07.1.04c.13.06.26.12.39.18.11.06.22.12.33.18.05.03.36.25.14.07.11.09.21.19.3.29.2.21-.08-.17.05.08.04.06.07.12.1.18-.06-.14-.06-.15-.01-.01.03.12.06.23.09.35.02.09.01.07,0-.08,0,.07.01.14.01.21,0,.14-.01.28-.02.42.01-.29,0,.02-.02.08-.03.14-.07.27-.11.4-.03.07-.05.15-.08.22.04-.1.05-.11,0-.03-.07.12-.12.24-.19.36-.13.24-.28.47-.44.69-.09.13-.18.25-.28.38-.09.12-.1.12-.02.03-.05.06-.1.12-.14.18-.4.51-.54,1.27,0,1.77.45.41,1.34.55,1.77,0h0Z"/><path class="cls-1" d="m126.1,237.59c.98-1.05,1.71-2.28,2.2-3.64.1-.29.03-.7-.13-.96s-.45-.51-.75-.57c-.32-.07-.68-.06-.96.13s-.46.43-.57.75c-.06.17-.12.33-.19.49l.13-.3c-.3.7-.68,1.35-1.14,1.95l.2-.25c-.17.22-.35.44-.55.64-.22.24-.37.55-.37.88,0,.31.14.67.37.88s.55.38.88.37.66-.12.88-.37h0Z"/><path class="cls-1" d="m124.02,246.86c1.61,0,1.61-2.5,0-2.5s-1.61,2.5,0,2.5h0Z"/><path class="cls-1" d="m119.43,243.41c1.61,0,1.61-2.5,0-2.5s-1.61,2.5,0,2.5h0Z"/><path class="cls-1" d="m89.8,218.5c-2.77-.45-5.51-1.09-8.2-1.9-.63-.19-1.39.23-1.54.87s.2,1.33.87,1.54c2.69.81,5.43,1.45,8.2,1.9.64.1,1.38-.17,1.54-.87.14-.6-.18-1.43-.87-1.54h0Z"/><path class="cls-1" d="m89.47,210.04c-.51-.18-1.01-.35-1.52-.53-.17-.05-.33-.06-.5-.02-.17,0-.32.06-.46.15-.15.08-.26.19-.35.32-.11.12-.19.26-.22.43-.07.32-.06.68.13.96l.2.25c.16.15.34.26.55.32.51.18,1.01.35,1.52.53.17.05.33.06.5.02.17,0,.32-.06.46-.15.15-.08.26-.19.35-.32.11-.12.19-.26.22-.43.07-.32.06-.68-.13-.96l-.2-.25c-.16-.15-.34-.26-.55-.32h0Z"/><path class="cls-1" d="m90.98,227.59c-4.08-.3-7.96-1.83-11.21-4.29-.54-.41-1.4-.09-1.71.45-.37.64-.09,1.3.45,1.71,3.61,2.73,7.97,4.3,12.48,4.63.67.05,1.25-.61,1.25-1.25,0-.72-.57-1.2-1.25-1.25h0Z"/><path class="cls-1" d="m122.74,227.84c6.49,1.08,13.94,1.83,19.56-2.3.58-.43.76-1.04.45-1.71-1.16-2.47-3.96-3.21-6.44-3.59-3.36-.51-6.74-.41-10.12-.3l.33,2.46c2.2-.76,4.29-1.77,6.24-3.05,1.31-.86,3.9-2.26,2.85-4.22-.91-1.7-3.75-1.65-5.36-1.5-1.15.1-2.28.32-3.41.51-.56.1-1.35.38-1.89.1-.43-.22-.86-.94-1.18-1.3-3.26-3.55-6.75-6.87-10.46-9.95-1.81-1.51-3.68-2.96-5.58-4.35-1.45-1.06-3.18-2.02-4.47-.19l2.28.3c-.13-.99.44-2.04.44-3.04s-.5-1.95-1.46-2.33c-2.45-.99-4.34,1.7-5.35,3.5l2.33.63c-.15-1.28-.38-2.53-.76-3.77-.16-.53-.64-.92-1.21-.92-.66,0-1.24.18-1.76.59-.7.55-.78,1.35-1.32,1.98-.76.88-2.41.86-3.4,1.43-1.21.7-1.97,1.95-2.16,3.32-.23,1.67.52,3.15,1.32,4.56,3.32,5.86,8.22,10.56,13.21,15,2.83,2.52,5.69,5,8.38,7.68,1.14,1.14,2.91-.63,1.77-1.77-5.23-5.19-11.17-9.66-16.09-15.16-1.21-1.36-2.36-2.77-3.39-4.27s-2.64-3.45-2.75-5.24c-.12-1.89,1.6-2.16,2.99-2.65.66-.23,1.3-.53,1.81-1.03.41-.4.89-1.95,1.4-1.95l-1.21-.92c.32,1.02.55,2.04.67,3.1.13,1.15,1.67,1.81,2.33.63.37-.66.74-1.39,1.3-1.92.25-.23.5-.42.84-.49.2-.04.05-.23,0,.13-.14,1.22-.51,2.31-.34,3.56.16,1.18,1.74,1.06,2.28.3-.25.36-.07.29.32.56.43.3.85.62,1.28.93.82.61,1.63,1.22,2.43,1.86,1.41,1.12,2.8,2.27,4.16,3.46,2.83,2.48,5.54,5.1,8.09,7.86,1.1,1.18,1.99,2.54,3.77,2.48,1.9-.07,3.74-.73,5.65-.78.43-.01.88-.01,1.31.05l.39.08c.36.24.53.13.51-.33-.75.49-1.45,1.08-2.21,1.56-1.65,1.05-3.41,1.91-5.26,2.55-1.27.44-1.15,2.51.33,2.46,2.8-.09,5.61-.2,8.4.08,2.04.2,5.01.45,6,2.56l.45-1.71c-5.07,3.73-11.78,3.03-17.63,2.05-1.57-.26-2.25,2.15-.66,2.41h0Z"/><path class="cls-1" d="m91.13,200.95c-.07-.43-.01-.06-.02.06,0,.05-.03.26,0,.03s0-.02-.01.02c-.02.09-.04.24-.09.31,0,0,.15-.3.05-.12-.03.06-.06.12-.09.17s-.07.11-.11.16c-.06.1-.11.05.08-.1-.08.06-.15.17-.22.24-.03.02-.08.06-.1.09.15-.19.19-.14.07-.06-.1.07-.21.12-.31.18.27-.16.2-.08.09-.04-.05.02-.1.03-.16.05-.04.01-.09.02-.13.03-.24.06.32-.01.07-.01-.1,0-.19,0-.29,0-.12,0-.21-.07.11.02-.06-.02-.13-.03-.19-.04-.11-.03-.2-.07-.31-.1.3.08.2.09.12.05-.06-.03-.12-.06-.17-.09s-.32-.23-.14-.09,0,0-.02-.03c-.05-.04-.1-.09-.14-.14-.04-.04-.07-.08-.11-.12-.11-.12.19.27.06.07-.06-.09-.12-.18-.17-.28-.02-.04-.04-.08-.06-.12.16.31.08.18.04.08-.04-.12-.06-.24-.09-.35.1.4.01.07.01-.06,0-.07.03-.4,0-.16s.02-.1.04-.16c.03-.13.09-.25.12-.38-.07.28-.09.2-.05.12.03-.06.06-.12.09-.18.05-.09.11-.17.16-.25.09-.14-.21.25-.05.07.03-.03.06-.07.09-.1.05-.05.09-.1.14-.14.08-.07.25-.16-.05.03.08-.05.16-.11.25-.16.03-.02.07-.03.1-.05.19-.1-.26.09-.12.05.08-.02.16-.06.25-.08.06-.01.11-.03.17-.04.11-.02.28,0-.1.01.11,0,.21-.02.32-.01.15,0,.46.08.04-.01.1.02.2.04.3.07.05.01.09.03.13.04.12.04.2.13-.09-.04.09.06.19.1.29.16.08.05.14.14-.12-.1.04.04.08.07.12.11s.08.08.11.12c.14.14-.17-.26-.06-.08.06.1.11.19.16.29.12.27.48.5.75.57.3.08.7.05.96-.13s.5-.43.57-.75c.08-.35.02-.64-.13-.96-.51-1.18-1.89-1.81-3.13-1.79-1.38.03-2.66.8-3.29,2.04-.33.64-.53,1.38-.48,2.11.06.81.34,1.52.86,2.15.88,1.09,2.47,1.65,3.82,1.22.82-.26,1.49-.8,1.96-1.51.5-.75.62-1.63.48-2.5-.05-.29-.33-.61-.57-.75-.27-.16-.66-.22-.96-.13s-.59.29-.75.57c-.17.32-.18.61-.13.96h0Z"/><path class="cls-1" d="m117.54,261.77c-2.37,2.06-4.65,4.22-6.91,6.4-1.9,1.84-4.42,3.79-4.87,6.57-.11.69.17,1.31.87,1.54,3.52,1.17,6.82-1.13,9.03-3.67,1.11-1.28,2.23-2.6,3.19-4s1.64-2.99,1.51-4.7c-.05-.67-.54-1.25-1.25-1.25-.64,0-1.3.57-1.25,1.25.1,1.33-.49,2.45-1.23,3.52-.79,1.13-1.7,2.2-2.6,3.25-1.64,1.92-4,4.1-6.74,3.19l.87,1.54c.18-1.13.8-2.02,1.56-2.85.95-1.03,2-1.98,3.01-2.95,2.15-2.07,4.32-4.11,6.57-6.07.51-.44.45-1.31,0-1.77-.51-.51-1.26-.44-1.77,0h0Z"/><path class="cls-1" d="m100.78,250.65c-2.03,1.59-4.07,3.19-5.97,4.93-.92.85-1.83,1.72-2.65,2.67s-1.53,1.92-1.81,3.1c-.32,1.33-.11,3.08,1.57,3.22,1.28.11,2.45-.53,3.43-1.3s1.83-1.69,2.72-2.55c.97-.94,1.94-1.88,2.9-2.81s2.26-1.91,2.64-3.28-.31-2.71-1.6-3.18c-.63-.23-1.37.26-1.54.87-.19.7.24,1.3.87,1.54-.15-.05-.1-.06-.13-.02,0,0-.01.17-.01.16-.19.44-.58.76-.92,1.09-.99.97-1.99,1.93-2.99,2.89s-1.88,1.85-2.85,2.76c-.37.34-.74.68-1.16.94-.2.12-.4.23-.62.3-.12.04-.25.06-.37.09-.22.05-.21-.11-.04.01l.45.45c-.11-.2.14-.84.22-1.02.21-.49.54-.95.89-1.36.83-.98,1.76-1.87,2.7-2.74,1.93-1.78,3.99-3.39,6.05-5.01.53-.42.44-1.33,0-1.77-.53-.53-1.23-.42-1.77,0h0Z"/><path class="cls-1" d="m132.57,248.24c3.87.07,7.72.5,11.51,1.29.66.14,1.35-.19,1.54-.87.17-.62-.21-1.4-.87-1.54-4-.84-8.08-1.3-12.17-1.38-1.61-.03-1.61,2.47,0,2.5h0Z"/><path class="cls-1" d="m132.88,251.2c3.15.45,6.24,1.23,9.22,2.32.63.23,1.37-.26,1.54-.87.19-.7-.24-1.31-.87-1.54-2.99-1.09-6.08-1.87-9.22-2.32-.67-.1-1.34.16-1.54.87-.16.59.2,1.44.87,1.54h0Z"/><path class="cls-1" d="m114.41,233.95c-2.2-1.88-4.61-3.5-7.2-4.8-.58-.29-1.38-.17-1.71.45-.3.57-.18,1.4.45,1.71,1.23.62,2.42,1.3,3.56,2.06.55.37,1.1.75,1.63,1.15.07.05.13.1.2.15.05.04.15.11.04.03.15.11.29.23.44.35.28.22.55.45.82.68.5.42,1.29.52,1.77,0,.43-.47.53-1.31,0-1.77h0Z"/><path class="cls-1" d="m111.19,236.43c-2.2-.98-4.39-1.96-6.59-2.94-.6-.27-1.37-.19-1.71.45-.29.54-.19,1.43.45,1.71,2.2.98,4.39,1.96,6.59,2.94.6.27,1.37.19,1.71-.45.29-.54.19-1.43-.45-1.71h0Z"/><path class="cls-1" d="m232.69,209.04c3.7-.77,6.97-2.98,9.17-6.04.39-.55.09-1.39-.45-1.71-.63-.37-1.31-.1-1.71.45-.23.33-.35.48-.66.83-.26.3-.54.58-.82.85-.65.61-1.08.96-1.82,1.43-1.42.91-2.7,1.43-4.37,1.78-.66.14-1.04.92-.87,1.54.19.69.87,1.01,1.54.87h0Z"/><path class="cls-1" d="m232.67,211.16c.51-.05,1.03-.08,1.55-.07s.9.04,1.34.14c.88.2,1.58.57,2.13,1.1.15.15.29.3.43.46.04.04.18.22.08.09.06.08.13.17.19.26.26.37.48.76.69,1.16.1.19.19.39.28.59.05.1.09.2.13.3s-.02-.05.05.13c.18.44.34.89.5,1.34.23.64.85,1.06,1.54.87.61-.17,1.1-.9.87-1.54-.71-1.97-1.52-4.06-3.09-5.52-1.83-1.69-4.29-2.05-6.69-1.82-.67.06-1.25.53-1.25,1.25,0,.63.57,1.31,1.25,1.25h0Z"/><path class="cls-1" d="m233.97,209.64c2.96-.73,6.05-.75,9.01-.05.66.16,1.35-.21,1.54-.87s-.21-1.38-.87-1.54c-3.4-.81-6.94-.79-10.34.05-1.56.39-.9,2.8.66,2.41h0Z"/><path class="cls-1" d="m233.9,207.81c.78-.72,1.61-1.51,2.05-2.49.53-1.18.65-2.57-.06-3.71-.35-.55-1.13-.82-1.71-.45s-.82,1.12-.45,1.71c.05.08.09.18.14.26-.03-.04-.09-.26-.05-.1.02.06.04.12.05.18.01.05.02.1.03.14.04.15-.02-.27-.02-.11,0,.1,0,.2,0,.3,0,.05,0,.1,0,.15,0,.16.06-.29.01-.07-.02.1-.04.2-.07.29s-.06.19-.09.29c-.06.17,0-.07.04-.09-.04.03-.06.13-.08.17-.1.18-.21.36-.33.53-.02.03-.13.18-.02.03s0,0-.02.03c-.08.09-.15.18-.23.27-.3.33-.63.63-.96.94-.48.44-.48,1.32,0,1.77.52.47,1.25.47,1.77,0h0Z"/><path class="cls-1" d="m36.98,232.01c-3.71,1.27-7.19,3.07-10.33,5.42-.91.68-.73,1.86.3,2.28,6.01,2.48,12.29,4.26,18.72,5.25,3.23.5,6.48.82,9.73,1.06,1.61.12,3.23.22,4.84.33,1.69.11,3.35.23,5.01-.2,1.2-.31,1.18-2.08,0-2.41-6.97-1.94-13.83-4.3-20.52-7.07-1.65-.68-3.28-1.39-4.9-2.12-.79-.36-1.87-.67-2.57-1.19-.34-.25-.41-.74-.75-1.28-.75-1.2-1.92-2.11-2.83-3.17-1.16-1.37-2.13-2.88-2.95-4.47l-1.41,1.84c6.15,1.1,11.8,3.75,17.22,6.78s11.09,6.45,16.46,9.95c1.35.88,2.61-1.28,1.26-2.16-5.49-3.58-11.12-6.99-16.85-10.17-5.47-3.03-11.23-5.7-17.43-6.81-1.08-.19-1.94.82-1.41,1.84.79,1.52,1.71,2.96,2.78,4.3.97,1.22,2.45,2.28,3.17,3.65.32.61.43,1.14,1,1.58.63.48,1.46.76,2.18,1.08,1.74.8,3.5,1.57,5.27,2.31,7.04,2.96,14.26,5.47,21.61,7.52v-2.41c-1.57.41-3.23.18-4.83.08s-3.23-.21-4.84-.33c-3.19-.25-6.37-.57-9.53-1.09-6.1-1.01-12.06-2.74-17.77-5.1l.3,2.28c2.97-2.22,6.22-3.97,9.74-5.17,1.51-.52.86-2.93-.66-2.41h0Z"/><path class="cls-1" d="m62.74,239.77c-1.88-4.71-6.12-8.08-10.16-10.92-2.16-1.52-4.42-2.89-6.7-4.22-.96-.55-2.28-1.68-3.45-1.37s-1.9,2.06-2.51,2.97c-.9,1.34,1.27,2.59,2.16,1.26.34-.51.68-1.01,1.02-1.52.08-.11.15-.22.23-.34.28-.34.08-.32-.62.06.01.08.55.31.64.36.96.55,1.92,1.1,2.87,1.67,1.9,1.13,3.76,2.31,5.56,3.6,3.27,2.35,7.02,5.25,8.56,9.11.59,1.48,3.01.83,2.41-.66h0Z"/><path class="cls-1" d="m90.06,108.97c.1,1.39.3,2.8.29,4.19,0,.98-1.02,1.49-1.86,1.71-2.2.57-4.6-.68-6.37-1.88s-2.16-3.16-1.39-5.03,2.75-3.17,4.64-3.82c.49-.17,1.13-.44,1.66-.27s.97.68,1.32,1.07c.8.88,1.27,1.96,1.49,3.12.13.66.92,1.04,1.54.87.69-.19,1-.87.87-1.54-.51-2.63-2.81-6.34-5.91-6.04-1.49.15-3.04.83-4.3,1.62s-2.33,1.78-3.09,3.02c-1.53,2.49-1.49,5.93.59,8.1,1.07,1.12,2.58,1.9,3.98,2.51s2.99,1.05,4.57.87c1.69-.19,3.55-.99,4.37-2.58.45-.87.39-1.78.32-2.73-.08-1.06-.15-2.12-.23-3.18-.05-.67-.54-1.25-1.25-1.25-.64,0-1.3.57-1.25,1.25h0Z"/><path class="cls-1" d="m91.04,111.06c-1.3.14-2.65.28-3.89-.12-.13-.04-.26-.09-.35-.18-.1-.09-.16-.22-.21-.34-.27-.64-.4-1.34-.39-2.04,0-.14.01-.29.1-.4.1-.13.28-.18.44-.21.53-.11,1.06-.23,1.59-.34.44-.1.88-.19,1.32-.29"/><path class="cls-1" d="m91.04,109.81c-.83.09-1.67.18-2.5.13-.09,0-.18-.01-.27-.02-.06,0-.12-.01-.18-.02.19.03.21.03.07,0-.2-.04-.41-.08-.6-.14-.1-.03-.28-.15,0,.01.07.04.31.38.16.13-.04-.08-.03-.05.04.11-.02-.05-.04-.11-.06-.16-.03-.1-.07-.19-.09-.29-.05-.18-.09-.37-.13-.55-.02-.14-.02-.11,0,.07,0-.06-.01-.12-.02-.17,0-.09-.01-.17-.02-.26,0-.05.03-.3,0-.33l-.03.19c.08-.28-.05-.13-.39.46-.31.16-.11.04,0,.02.1-.02.21-.05.32-.07.88-.19,1.75-.38,2.63-.57.64-.14,1.07-.92.87-1.54-.22-.67-.85-1.02-1.54-.87-.81.18-1.63.35-2.44.53-.51.11-1.01.21-1.41.58-.44.41-.53,1.03-.51,1.6.03.85.21,1.84.65,2.59.56.95,1.81,1.11,2.81,1.19.88.07,1.76-.02,2.63-.12.34-.04.63-.11.88-.37.22-.22.38-.57.37-.88-.03-.62-.55-1.33-1.25-1.25h0Z"/><path class="cls-1" d="m96.3,78.44c-1.85.78-2.64,2.97-3.39,4.7-.83,1.9-1.46,3.85-1.69,5.92-.21,1.8-.18,3.98.91,5.52,1.2,1.71,3.27,1.82,5.17,1.58,2.11-.27,4.11-1.04,6.11-1.7,1.84-.61,3.88-1.17,5.28-2.6s1.9-3.36,1.07-5.14c-.38-.82-.98-1.52-1.53-2.24-.59-.77-1.19-1.53-1.84-2.26-1.35-1.52-2.92-2.95-4.79-3.8-1.02-.47-2.2-.93-3.35-.72-1.07.2-1.62,1.05-2.53,1.52-1.42.75-.16,2.91,1.26,2.16.56-.3.96-.86,1.51-1.14s1.42.14,1.95.38c1.21.56,2.26,1.39,3.19,2.32,1,.99,1.88,2.08,2.73,3.2.8,1.05,1.75,2.09.94,3.41-.76,1.24-2.29,1.73-3.6,2.16-1.52.51-3.03,1.04-4.56,1.49-1.25.36-3.17.97-4.45.41-1.12-.49-1.1-2.26-1.09-3.26.03-1.73.46-3.42,1.07-5.03.32-.86.71-1.7,1.12-2.52.2-.39.4-.78.61-1.17.12-.21.3-.69.54-.79.62-.26,1.07-.83.87-1.54-.16-.59-.91-1.14-1.54-.87h0Z"/><path class="cls-1" d="m98.36,94.13c-.52-1.47-.79-3.03-.81-4.6,0-.74.09-1.59.7-2.02.24-.17.54-.26.83-.32.59-.13,1.18-.21,1.78-.24.12,0,.24,0,.34.06.08.05.13.14.18.23.75,1.43,1.5,2.86,2.25,4.29"/><path class="cls-1" d="m99.56,93.8c-.26-.76-.47-1.54-.61-2.33-.02-.11-.04-.22-.05-.33-.03-.22.02.16,0-.07-.02-.2-.04-.4-.06-.6-.03-.4-.05-.8-.04-1.19,0-.07,0-.14,0-.21s.05-.3,0-.03c.03-.15.07-.3.11-.45s-.1.15,0,.03c.09-.11.11-.14,0-.03.05-.05.09-.1.14-.14-.18.15.09-.02-.03.04s.09-.02.11-.03c.09-.03.18-.05.27-.07.2-.05.41-.09.61-.12.03,0,.25-.04.18-.03-.09.01.21-.02.25-.02.09,0,.18-.02.28-.02.07,0,.13,0,.2,0,.1,0,.08,0-.05.01l-.55-.32c-.07-.06-.09-.16-.02-.02.05.11.11.21.17.32.1.19.2.38.3.57.2.38.4.76.6,1.13.4.76.79,1.51,1.19,2.27.3.58,1.16.8,1.71.45.59-.38.77-1.09.45-1.71-.55-1.05-1.1-2.1-1.65-3.15-.27-.52-.51-1.17-.93-1.59-.57-.56-1.36-.47-2.09-.38-1.24.16-2.62.38-3.28,1.59-.52.97-.49,2.12-.41,3.18.11,1.34.37,2.66.81,3.93.21.62.87,1.09,1.54.87.61-.2,1.1-.88.87-1.54h0Z"/><path class="cls-1" d="m103.44,76.14c.67.07,1.34.08,2.01.12.33.02.67.04,1,.08-.23-.03.24.05.29.06.11.02.22.05.33.08s.22.06.33.1c.06.02.45.19.15.05.23.11.45.24.67.38.11.08.1.07-.02-.03.05.04.1.08.14.12.09.08.18.18.26.27.09.11.08.1-.02-.03.04.05.07.1.1.16.07.11.12.22.18.34.27.6,1.18.79,1.71.45.62-.4.74-1.07.45-1.71-.57-1.25-1.83-2.05-3.1-2.44-1.44-.44-2.98-.33-4.47-.48-.65-.07-1.28.62-1.25,1.25.03.73.55,1.18,1.25,1.25h0Z"/><path class="cls-1" d="m105.94,69.39c2-.18,3.85.54,5.54,1.63.74.48,1.52,1.01,1.96,1.78s.58,1.79.69,2.63c.09.67.51,1.25,1.25,1.25.61,0,1.34-.58,1.25-1.25-.16-1.27-.33-2.53-.92-3.69s-1.64-1.99-2.7-2.71c-2.06-1.39-4.55-2.38-7.07-2.15-.67.06-1.25.53-1.25,1.25,0,.63.57,1.31,1.25,1.25h0Z"/><path class="cls-1" d="m78.28,102.16c.17-.2.36-.37.57-.53l-.25.2c.37-.28.78-.5,1.2-.68l-.3.13c.7-.29,1.44-.48,2.18-.65.64-.15,1.08-.91.87-1.54-.21-.66-.86-1.04-1.54-.87-1.62.39-3.35.89-4.5,2.18-.22.25-.37.54-.37.88,0,.31.14.67.37.88.47.43,1.31.52,1.77,0h0Z"/><path class="cls-1" d="m77.59,94.41c.74-.08,1.47-.15,2.22-.17.63-.02,1.47.02,1.88.09.3.06.6.13.89.22.12.04.23.08.35.12.14.05.15.06.04.02.07.03.15.07.22.11.25.13.5.27.72.44-.17-.13.18.16.21.19.12.11.23.23.33.35.43.5,1.33.47,1.77,0,.48-.53.46-1.24,0-1.77-2.16-2.49-5.65-2.4-8.64-2.1-.65.07-1.28.53-1.25,1.25.03.62.55,1.32,1.25,1.25h0Z"/><path class="cls-1" d="m263.62,120.55c2.87.46,6.53-1.06,7.13-4.21.29-1.54-.46-3.05-1.86-3.76-1.63-.82-3.36-.39-4.95.3l1.84.75c-.15-.67-.31-1.33-.46-2l-.87,1.54c1.42-.28,2.85-.69,3.79-1.87,1.07-1.35.87-3.05.2-4.54-.62-1.38-1.91-2.27-3.45-2.07s-2.59,1.31-3.3,2.6h2.16c-1.09-2.47-4.46-2.23-6.48-1.23-2.31,1.14-2.69,3.75-2.4,6.07s1.17,4.59,2.86,6.24,4,2.59,6.31,2.29c.67-.09,1.25-.51,1.25-1.25,0-.61-.58-1.34-1.25-1.25-3.35.44-5.82-2.23-6.53-5.29-.28-1.2-.63-3.37.44-4.29.84-.72,3.08-1.29,3.64-.02.38.87,1.74.76,2.16,0,.3-.55.74-1.3,1.44-1.39.59-.07.84.46,1.01.95.24.69.38,1.34-.22,1.86s-1.53.65-2.29.79c-.68.13-1.02.92-.87,1.54.15.67.31,1.33.46,2,.2.86,1.14,1.05,1.84.75s1.66-.63,2.42-.3c.64.28.85.84.56,1.47-.63,1.39-2.44,2.16-3.89,1.93-.67-.11-1.34.17-1.54.87-.16.59.2,1.43.87,1.54h0Z"/><path class="cls-1" d="m261.27,119.41l.8,7.27.37,3.39c.1.89.64,2.45-.38,2.86-1.71.69-4.27,1.43-5.89.13-2.27-1.84.7-3.61,2.25-4.33,1.16-.54.54-2.33-.63-2.33-.87,0-1.63.23-2.46.43-.71.17-1.64.34-1.49-.68.22-1.5,1.97-2.49,3.29-2.77.66-.14,1.05-.92.87-1.54-.27-.98-.55-1.96-.82-2.93-.15-.55-.65-.89-1.21-.92-.76-.04-1.87.39-2.57.16-1.15-.38.48-1.21.93-1.36,1.54-.5.91-2.72-.66-2.41-1.44.29-2.56-1.25-1.88-2.55.77-1.47,2.98-1.35,4.36-1.33,1.61.02,1.61-2.48,0-2.5-2.91-.04-6.63.66-7.03,4.18-.34,3.01,2.35,5.18,5.21,4.61l-.66-2.41c-1.86.6-3.72,2.16-3.05,4.34.78,2.55,3.42,1.67,5.35,1.77l-1.21-.92c.27.98.55,1.96.82,2.93l.87-1.54c-2.53.52-5.19,2.78-5.17,5.56,0,1.25.79,2.36,1.98,2.75,1.59.51,2.95-.37,4.51-.38l-.63-2.33c-2.58,1.2-5.27,3.44-3.94,6.61,1.14,2.74,4.32,3.37,6.96,2.88,1.29-.24,2.97-.6,3.99-1.48,1.22-1.05.98-2.59.82-4.02-.41-3.71-.82-7.43-1.23-11.14-.17-1.58-2.68-1.6-2.5,0h0Z"/><path class="cls-1" d="m262.85,132.65c.47,1.89,2.48,2.45,4.18,2.59.91.07,1.83.05,2.75.13.15.01.17.02.43.07.18.04.37.08.55.13.11.03.22.07.33.11.02,0,.19.09.09.04.21.1.41.22.6.35.56.38,1.39.1,1.71-.45.36-.62.11-1.33-.45-1.71-1.43-.99-3.2-1.07-4.88-1.12-.75-.02-1.46-.02-2.16-.24-.07-.02-.15-.05-.22-.07-.18-.07.15.08-.02-.01-.07-.04-.13-.07-.2-.11-.02-.01-.21-.14-.1-.06.11.09-.26-.27-.16-.16s-.04-.14,0,0c.04.16-.04-.17-.04-.16-.16-.66-.9-1.05-1.54-.87s-1.04.88-.87,1.54h0Z"/></g></svg>