<svg xmlns="http://www.w3.org/2000/svg" width="831" height="1040" viewBox="0 0 831 1040"><g transform="translate(-665 -41)"><g transform="translate(0 299)" opacity="0.496"><circle cx="179" cy="179" r="179" transform="translate(1138 -79)" fill="#fff"/><circle cx="179" cy="179" r="179" transform="translate(772 -258)" fill="#fff" opacity="0.112"/><circle cx="61" cy="61" r="61" transform="translate(750 281)" fill="#fff"/><circle cx="61" cy="61" r="61" transform="translate(881 272)" fill="#fff"/><circle cx="61" cy="61" r="61" transform="translate(999 619)" fill="#fff"/><circle cx="61" cy="61" r="61" transform="translate(820 424)" fill="#fff"/><circle cx="61" cy="61" r="61" transform="translate(1097 232)" fill="#fff"/><circle cx="117.5" cy="117.5" r="117.5" transform="translate(1192 306)" fill="#fff"/><circle cx="117.5" cy="117.5" r="117.5" transform="translate(1138 547)" fill="#fff"/><circle cx="117.5" cy="117.5" r="117.5" transform="translate(953 363)" fill="#fff"/><circle cx="82.5" cy="82.5" r="82.5" transform="translate(932 116)" fill="#fff"/><circle cx="117.5" cy="117.5" r="117.5" transform="translate(665 44)" fill="#fff"/></g></g></svg>