<svg height="37.305" viewBox="0 0 131.743 37.305" width="131.743" xmlns="http://www.w3.org/2000/svg"><g fill="#ffffff"><path d="m30.91 10.979c-1.04-2.962-12.126-3.01-12.126-3.01.992-4.321 1.023-7.38-.155-7.863-1.4-.567-4.113 2.643-6.893 7.8-6.698.319-11.736 1.763-11.736 3.494 0 1.434 3.511 2.674 8.553 3.241-.08.2-8.394 18.7-3.4 18.7s11.183-17.35 11.568-18.412a49.683 49.683 0 0 0 6.1-.562c-.912 1.868-6.167 19.316-1.753 20.077s11.281-19.352 9.842-23.465z" transform="translate(0 -.041)"/><path d="m1618.737 39.845c-1.78-.394-4.02 3.79-5 9.337s-.345 10.346 1.434 10.736 4.029-3.79 5-9.332.341-10.356-1.434-10.741z" transform="translate(-1541.855 -38.059)"/><path d="m1856.115 32.812c-2.036-.305-4.874 7.473-6.322 17.372s-.969 18.164 1.067 18.466 4.865-7.469 6.322-17.368.974-18.164-1.067-18.47z" transform="translate(-1767.098 -31.354)"/><path d="m829.3 350.7c-7.623 0-13.8 1.266-13.8 2.829s6.176 2.82 13.8 2.82 13.8-1.257 13.8-2.82-6.173-2.829-13.8-2.829z" transform="translate(-779.397 -335.176)"/><path d="m2217.125 74.374c-1.806-.372-4.865 6.163-6.849 14.6s-2.108 15.566-.3 15.933 4.86-6.171 6.835-14.6 2.116-15.561.314-15.933z" transform="translate(-2110.923 -71.069)"/><path d="m2546.26 106.974c-.819-4.768-11.409 3.236-12.732 4.086a58.609 58.609 0 0 0 1.036-8.164c0-7.677-1.82-13.9-4.077-13.9s-4.086 6.22-4.086 13.9c0 5.884 1.081 12.352 2.6 14.37a.038.038 0 0 0 .009.027 1.441 1.441 0 0 0 .426.456 1.59 1.59 0 0 0 1.053.487.384.384 0 0 0 .111-.022c2.365.443 16.492-6.459 15.66-11.24z" transform="translate(-2414.553 -85.062)"/></g></svg>